<?xml version="1.0" encoding="UTF-8"?>
<svg id="Layer_1" data-name="Layer 1" xmlns="http://www.w3.org/2000/svg" viewBox="0 0 360 329.01">
  <defs>
    <style>
      .cls-1 {
        letter-spacing: -.02em;
      }

      .cls-2 {
        letter-spacing: -.01em;
      }

      .cls-3 {
        fill: #57af69;
      }

      .cls-3, .cls-4, .cls-5 {
        stroke-width: 0px;
      }

      .cls-6 {
        letter-spacing: 0em;
      }

      .cls-4 {
        fill: #109e49;
      }

      .cls-7 {
        fill: #231f20;
        font-family: MontserratRoman-Medium, Montserrat;
        font-size: 26px;
        font-variation-settings: 'wght' 500;
        font-weight: 500;
      }

      .cls-8 {
        letter-spacing: -.01em;
      }

      .cls-5 {
        fill: #337639;
      }
    </style>
  </defs>
  <g>
    <path class="cls-5" d="M264.47,123.67c.96,5.01,1.46,10.17,1.46,15.47,0,17.38-5.42,33.48-14.64,46.72-26.53-2.78-39.3,19.27-44.36,31.82-.38.1-.75.21-1.14.31-3.23-10.91-8.49-37.18,4.89-63.43,0,0,18.91-35.42,53.79-30.89Z"/>
    <path class="cls-3" d="M184.4,57.45c28.9,0,54.29,15.07,68.78,37.8-60.92,6.11-64.11,68.25-64.11,68.25-9.76-52.14-53.6-67.14-71.52-71.13,14.73-21.1,39.18-34.91,66.86-34.91Z"/>
    <path class="cls-4" d="M169.02,142.4c24.06,31.34,19.83,66.61,17.49,78.39-.71.01-1.4.03-2.11.03-45.04,0-81.55-36.59-81.55-81.69,0-8.87,1.42-17.41,4.02-25.41,39.37-3.16,62.15,28.67,62.15,28.67Z"/>
  </g>
  <!-- <text class="cls-7" transform="translate(116.7 257.04)"><tspan x="0" y="0">G</tspan><tspan class="cls-2" x="20.07" y="0">r</tspan><tspan x="30.42" y="0">ee</tspan><tspan class="cls-8" x="62.24" y="0">n</tspan><tspan class="cls-1" x="79.69" y="0">w</tspan><tspan class="cls-8" x="102.62" y="0">a</tspan><tspan class="cls-6" x="117.91" y="0">y</tspan><tspan x="132.26" y="0">s</tspan></text> -->
</svg>