<?xml version="1.0" encoding="UTF-8"?>
<svg id="Layer_1" data-name="Layer 1" xmlns="http://www.w3.org/2000/svg" viewBox="0 0 505.4 329.01">
  <defs>
    <style>
      .cls-1 {
        letter-spacing: .01em;
      }

      .cls-2 {
        letter-spacing: 0em;
      }

      .cls-3 {
        fill: #e8c581;
      }

      .cls-3, .cls-4, .cls-5, .cls-6 {
        stroke-width: 0px;
      }

      .cls-7 {
        fill: #231f20;
        font-family: MontserratRoman-Medium, Montserrat;
        font-size: 40.04px;
        font-variation-settings: 'wght' 500;
        font-weight: 500;
      }

      .cls-4 {
        fill: #b25826;
      }

      .cls-5 {
        fill: #e69b24;
      }

      .cls-8 {
        letter-spacing: -.01em;
      }

      .cls-6 {
        fill: #fff;
      }
    </style>
  </defs>
  <g>
    <path class="cls-3" d="M391.24,136.52v.3h-124.05V10.55c68.7,1.02,124.05,57.04,124.05,125.97Z"/>
    <path class="cls-4" d="M267.19,136.82h124.05c-.16,68.79-55.45,124.66-124.05,125.67v-125.67Z"/>
    <path class="cls-3" d="M267.19,136.82v125.67c-.65.02-1.3.02-1.94.02-69.49,0-125.83-56.26-126-125.7h127.94ZM257.17,249.24v-102.38h-105.46c11.98,89.29,105.46,102.38,105.46,102.38Z"/>
    <path class="cls-5" d="M267.19,10.55v126.27h-127.94v-.3c0-69.58,56.42-126,126-126,.65,0,1.3,0,1.94.02Z"/>
    <path class="cls-6" d="M257.17,146.86v102.38s-93.47-13.09-105.46-102.38h105.46ZM247.3,233.42v-76.73h-82.56c12.4,61.53,82.56,76.73,82.56,76.73Z"/>
    <path class="cls-3" d="M247.3,156.69v76.73s-70.16-15.2-82.56-76.73h82.56Z"/>
  </g>
  <!-- <text class="cls-7" transform="translate(24 318.32)"><tspan x="0" y="0">Mu</tspan><tspan class="cls-1" x="65.34" y="0">l</tspan><tspan x="77.04" y="0">tipu</tspan><tspan class="cls-2" x="159.2" y="0">r</tspan><tspan x="175.33" y="0">pose G</tspan><tspan class="cls-8" x="314.31" y="0">r</tspan><tspan x="330.24" y="0">ounds</tspan></text> -->
</svg>