<?xml version="1.0" encoding="UTF-8"?>
<svg id="Layer_1" data-name="Layer 1" xmlns="http://www.w3.org/2000/svg" viewBox="0 0 360 329.01">
  <defs>
    <style>
      .cls-1 {
        letter-spacing: 0em;
      }

      .cls-2 {
        letter-spacing: 0em;
      }

      .cls-3 {
        letter-spacing: -.02em;
      }

      .cls-4 {
        fill: #231f20;
        font-family: MontserratRoman-Medium, Montserrat;
        font-size: 26px;
        font-variation-settings: 'wght' 500;
        font-weight: 500;
      }

      .cls-5 {
        letter-spacing: -.01em;
      }

      .cls-6 {
        fill: #65abc4;
        stroke-width: 0px;
      }
    </style>
  </defs>
  <g>
    <path class="cls-6" d="M264.84,123.66c.68,3.57,1.13,7.22,1.32,10.94-13.23-.03-26.24-10.02-38.46-13.46-13.53-3.81-28.25-3.54-40.43,3.71-4.87,2.9-8.93,6.79-13.62,9.9-10.55,7.03-24.44,3.24-34.7-2.32-15.91-8.63-28.88-8.26-35.29-7.23.65-3.84,1.58-7.59,2.74-11.22,7-.64,18.65.01,32.55,7.56,10.26,5.55,24.14,9.35,34.7,2.32,4.69-3.13,8.75-7,13.62-9.9,12.18-7.26,26.9-7.52,40.43-3.72,11.8,3.32,24.37,12.77,37.14,13.43Z"/>
    <path class="cls-6" d="M266.08,144.79c-.24,3.44-.68,6.82-1.35,10.14-12.74-.71-25.24-10.09-37.02-13.41-13.53-3.81-28.25-3.54-40.43,3.71-4.87,2.9-8.93,6.79-13.62,9.9-10.55,7.03-24.44,3.24-34.7-2.32-16.67-9.05-30.11-8.22-36.17-7.09h-.01c-.18-2.22-.27-4.45-.27-6.71,0-1.15.03-2.29.07-3.42,5.95-1.15,19.51-2.13,36.38,7.03,10.26,5.57,24.14,9.36,34.7,2.34,4.69-3.13,8.75-7.01,13.62-9.9,12.18-7.26,26.9-7.52,40.43-3.72,12.19,3.42,25.17,13.4,38.37,13.47Z"/>
    <path class="cls-6" d="M262.12,164.86c-1.07,3.23-2.35,6.39-3.81,9.42-10.52-2.68-20.81-9.63-30.6-12.38-13.53-3.81-28.25-3.54-40.43,3.71-4.87,2.9-8.93,6.79-13.62,9.9-10.55,7.03-24.44,3.24-34.7-2.32-13.56-7.35-24.98-8.14-32.03-7.59-1.12-3.22-2.02-6.52-2.71-9.9,6.58-.97,19.28-1.09,34.74,7.31,10.26,5.55,24.14,9.35,34.7,2.32,4.69-3.13,8.75-7,13.62-9.9,12.18-7.26,26.9-7.52,40.43-3.72,10.97,3.08,22.58,11.46,34.41,13.16Z"/>
    <path class="cls-6" d="M253.49,182.97c-1.74,2.74-3.65,5.36-5.69,7.86-6.86-3.05-13.59-6.73-20.09-8.56-13.53-3.81-28.25-3.54-40.43,3.71-4.87,2.9-8.93,6.79-13.62,9.91-10.55,7.01-24.44,3.23-34.7-2.34-8.04-4.36-15.33-6.4-21.4-7.25-2.4-3.38-4.55-6.95-6.42-10.69h.01c7.01.09,16.69,1.73,27.8,7.75,10.26,5.57,24.14,9.35,34.7,2.32,4.69-3.11,8.75-7,13.62-9.9,12.18-7.25,26.9-7.52,40.43-3.71,8.29,2.32,16.94,7.67,25.78,10.88Z"/>
    <path class="cls-6" d="M262.39,113.95c-11.92-1.61-23.64-10.08-34.68-13.19-13.53-3.81-28.25-3.54-40.43,3.71-4.87,2.9-8.93,6.79-13.62,9.9-10.55,7.03-24.44,3.24-34.7-2.32-11.61-6.31-21.67-7.81-28.74-7.75,13.05-27.88,41.35-47.18,74.17-47.18,36.5,0,67.41,23.86,78,56.85Z"/>
    <path class="cls-6" d="M187.28,214.42c11.4-6.79,25.05-7.46,37.85-4.38-12,6.89-25.91,10.84-40.74,10.84-1.94,0-3.86-.07-5.76-.21,2.8-2.17,5.57-4.41,8.65-6.25Z"/>
    <path class="cls-6" d="M164.22,218.38c-13.89-3.53-26.38-10.6-36.42-20.2,3.51,1.16,7.25,2.72,11.16,4.85,10.26,5.57,24.14,9.35,34.7,2.32,4.69-3.11,8.75-7,13.62-9.9,12.18-7.25,26.9-7.52,40.43-3.71,4.57,1.28,9.24,3.5,13.99,5.75-2.13,2.1-4.38,4.06-6.73,5.91-2.17-.91-4.32-1.7-6.45-2.29-13.52-3.81-28.24-3.54-40.41,3.71-4.87,2.9-8.93,6.79-13.62,9.9-3.19,2.11-6.65,3.26-10.26,3.66h-.01Z"/>
  </g>
  <!-- <text class="cls-4" transform="translate(116.7 257.04)"><tspan x="0" y="0">Blu</tspan><tspan class="cls-2" x="44.54" y="0">e</tspan><tspan class="cls-3" x="60.19" y="0">w</tspan><tspan class="cls-5" x="83.12" y="0">a</tspan><tspan class="cls-1" x="98.41" y="0">y</tspan><tspan x="112.76" y="0">s</tspan></text> -->
</svg>