<?xml version="1.0" encoding="UTF-8"?>
<svg id="Layer_1" data-name="Layer 1" xmlns="http://www.w3.org/2000/svg" viewBox="0 0 360 329.01">
  <defs>
    <style>
      .cls-1 {
        fill: #57af69;
      }

      .cls-1, .cls-2, .cls-3, .cls-4, .cls-5 {
        stroke-width: 0px;
      }

      .cls-2 {
        fill: #e8c581;
      }

      .cls-6 {
        letter-spacing: 0em;
      }

      .cls-7 {
        letter-spacing: -.02em;
      }

      .cls-8 {
        letter-spacing: 0em;
      }

      .cls-9 {
        fill: #231f20;
        font-family: MontserratRoman-Medium, Montserrat;
        font-size: 26px;
        font-variation-settings: 'wght' 500;
        font-weight: 500;
      }

      .cls-3 {
        fill: #e69b24;
      }

      .cls-4 {
        fill: #fff;
      }

      .cls-10 {
        letter-spacing: -.01em;
      }

      .cls-5 {
        fill: #228d44;
      }
    </style>
  </defs>
  <g>
    <path class="cls-2" d="M265.87,139c0,7.37-.98,14.49-2.8,21.28-10.68-.78-43.48-1.33-74.82,16.83-32.61-33.13-71.78-32.44-85.03-31.09-.19-2.31-.3-4.65-.3-7.02,0-45,36.49-81.47,81.48-81.47s81.47,36.47,81.47,81.47ZM227.23,111.1c0-9.39-7.62-17.03-17.03-17.03s-17.03,7.63-17.03,17.03,7.63,17.03,17.03,17.03,17.03-7.62,17.03-17.03Z"/>
    <path class="cls-5" d="M186.73,182.57c17.68-11.18,42.42-20.28,75.16-18.37-10.6,32.67-41.3,56.27-77.49,56.27-10.99,0-21.47-2.18-31.04-6.13,4.1-6.07,14.87-20.07,33.37-31.76h0Z"/>
    <path class="cls-3" d="M210.2,94.07c9.41,0,17.03,7.63,17.03,17.03s-7.62,17.03-17.03,17.03-17.03-7.62-17.03-17.03,7.63-17.03,17.03-17.03Z"/>
    <path class="cls-4" d="M188.25,177.11c-1.43.82-2.86,1.7-4.29,2.62-11.79-11.66-39.8-33.58-80.14-28.67-.25-1.66-.45-3.34-.6-5.04,13.26-1.36,52.42-2.04,85.03,31.09Z"/>
    <path class="cls-1" d="M183.96,179.73c-12.12,7.72-23.87,18.43-33.85,33.18-24.38-11.32-42.23-34.34-46.3-61.85,40.35-4.91,68.35,17.01,80.14,28.67Z"/>
    <path class="cls-4" d="M188.25,177.11c31.34-18.16,64.14-17.61,74.82-16.83-.36,1.33-.75,2.62-1.18,3.92-32.74-1.91-57.48,7.19-75.16,18.37h0c-18.5,11.7-29.27,25.71-33.37,31.77-1.1-.45-2.18-.92-3.25-1.43,9.98-14.75,21.72-25.45,33.85-33.18,1.43-.92,2.86-1.8,4.29-2.62Z"/>
  </g>
  <!-- <text class="cls-9" transform="translate(143.5 257.04)"><tspan class="cls-10" x="0" y="0">P</tspan><tspan class="cls-8" x="18.38" y="0">a</tspan><tspan class="cls-6" x="33.93" y="0">r</tspan><tspan class="cls-7" x="44.41" y="0">k</tspan><tspan x="59.98" y="0">s</tspan></text> -->
</svg>