<?xml version="1.0" encoding="UTF-8"?>
<svg id="Layer_1" data-name="Layer 1" xmlns="http://www.w3.org/2000/svg" viewBox="0 0 360 329.01">
  <defs>
    <style>
      .cls-1 {
        letter-spacing: -.01em;
      }

      .cls-2 {
        fill: #e8c581;
      }

      .cls-2, .cls-3, .cls-4, .cls-5 {
        stroke-width: 0px;
      }

      .cls-6 {
        letter-spacing: 0em;
      }

      .cls-3 {
        fill: #b25826;
      }

      .cls-7 {
        letter-spacing: 0em;
      }

      .cls-8 {
        fill: #231f20;
        font-family: MontserratRoman-Medium, Montserrat;
        font-size: 26px;
        font-variation-settings: 'wght' 500;
        font-weight: 500;
      }

      .cls-9 {
        letter-spacing: .01em;
      }

      .cls-4 {
        fill: #e69b24;
      }

      .cls-5 {
        fill: #fff;
      }
    </style>
  </defs>
  <g>
    <path class="cls-3" d="M185.66,139.19h80.55c-.11,44.67-36.02,80.94-80.55,81.61v-81.61Z"/>
    <path class="cls-2" d="M185.66,57.19c44.6.66,80.55,37.04,80.55,81.8v.2h-80.55V57.19Z"/>
    <path class="cls-2" d="M185.66,139.19v81.61c-.42.02-.84.02-1.26.02-45.14,0-81.71-36.53-81.82-81.62h83.08ZM179.14,212.19v-66.48h-68.48c7.78,57.98,68.48,66.48,68.48,66.48Z"/>
    <path class="cls-4" d="M185.66,57.19v82h-83.08v-.2c0-45.18,36.62-81.82,81.82-81.82.42,0,.84,0,1.26.02Z"/>
    <path class="cls-5" d="M179.14,145.71v66.48s-60.7-8.5-68.48-66.48h68.48ZM172.75,201.91v-49.82h-53.62c8.07,39.95,53.62,49.82,53.62,49.82Z"/>
    <path class="cls-2" d="M172.75,152.09v49.82s-45.56-9.87-53.62-49.82h53.62Z"/>
  </g>
  <!-- <text class="cls-8" transform="translate(31.49 257.04)"><tspan x="0" y="0">Mu</tspan><tspan class="cls-9" x="42.43" y="0">l</tspan><tspan class="cls-7" x="50.02" y="0">tipu</tspan><tspan class="cls-6" x="103.37" y="0">r</tspan><tspan x="113.85" y="0">pose G</tspan><tspan class="cls-1" x="204.1" y="0">r</tspan><tspan x="214.44" y="0">ounds</tspan></text> -->
</svg>