<?xml version="1.0" encoding="UTF-8"?>
<svg id="Layer_1" data-name="Layer 1" xmlns="http://www.w3.org/2000/svg" viewBox="0 0 360 329.01">
  <defs>
    <style>
      .cls-1 {
        letter-spacing: 0em;
      }

      .cls-2 {
        letter-spacing: .01em;
      }

      .cls-3 {
        fill: #231f20;
        font-family: MontserratRoman-Medium, Montserrat;
        font-size: 40.04px;
        font-variation-settings: 'wght' 500;
        font-weight: 500;
      }

      .cls-4 {
        fill: #cc7a68;
      }

      .cls-4, .cls-5 {
        stroke-width: 0px;
      }

      .cls-5 {
        fill: #fff;
      }
    </style>
  </defs>
  <g>
    <path class="cls-4" d="M179.9,11.19c69.23,0,125.33,56.1,125.33,125.33s-56.1,125.33-125.33,125.33-125.33-56.1-125.33-125.33S110.67,11.19,179.9,11.19ZM292.47,136.52c0-62.18-50.39-112.57-112.57-112.57s-112.57,50.39-112.57,112.57,50.39,112.57,112.57,112.57,112.57-50.39,112.57-112.57Z"/>
    <path class="cls-5" d="M179.9,23.96c62.18,0,112.57,50.39,112.57,112.57s-50.39,112.57-112.57,112.57-112.57-50.39-112.57-112.57S117.72,23.96,179.9,23.96ZM278.9,136.52c0-54.66-44.34-98.98-99.01-98.98s-98.98,44.32-98.98,98.98,44.32,99.01,98.98,99.01,99.01-44.34,99.01-99.01Z"/>
    <path class="cls-4" d="M179.9,37.54c54.66,0,99.01,44.32,99.01,98.98s-44.34,99.01-99.01,99.01-98.98-44.34-98.98-99.01,44.32-98.98,98.98-98.98ZM213.42,136.52c0-18.52-15-33.52-33.52-33.52s-33.52,15-33.52,33.52,15,33.54,33.52,33.54,33.52-15.02,33.52-33.54Z"/>
    <path class="cls-5" d="M179.9,103c18.52,0,33.52,15,33.52,33.52s-15,33.54-33.52,33.54-33.52-15.02-33.52-33.54,15-33.52,33.52-33.52ZM209.58,136.52c0-16.39-13.29-29.68-29.68-29.68s-29.68,13.29-29.68,29.68,13.29,29.68,29.68,29.68,29.68-13.29,29.68-29.68Z"/>
    <path class="cls-4" d="M179.9,106.84c16.39,0,29.68,13.29,29.68,29.68s-13.29,29.68-29.68,29.68-29.68-13.29-29.68-29.68,13.29-29.68,29.68-29.68ZM184.42,136.52c0-2.49-2.03-4.52-4.52-4.52s-4.52,2.03-4.52,4.52,2.03,4.52,4.52,4.52,4.52-2.03,4.52-4.52Z"/>
    <path class="cls-5" d="M179.9,132c2.49,0,4.52,2.03,4.52,4.52s-2.03,4.52-4.52,4.52-4.52-2.03-4.52-4.52,2.03-4.52,4.52-4.52Z"/>
  </g>
  <!-- <text class="cls-3" transform="translate(82.42 318.32)"><tspan x="0" y="0">Pl</tspan><tspan class="cls-1" x="40.08" y="0">a</tspan><tspan class="cls-2" x="63.62" y="0">y</tspan><tspan x="86.6" y="0">fields</tspan></text> -->
  <rect class="cls-5" x="71.12" y="134.82" width="217.56" height="3.9"/>
</svg>