<?xml version="1.0" encoding="UTF-8"?>
<svg id="Layer_1" data-name="Layer 1" xmlns="http://www.w3.org/2000/svg" viewBox="0 0 360 329.01">
  <defs>
    <style>
      .cls-1 {
        letter-spacing: 0em;
      }

      .cls-2 {
        letter-spacing: -.02em;
      }

      .cls-3 {
        letter-spacing: 0em;
      }

      .cls-4 {
        fill: #231f20;
        font-family: MontserratRoman-Medium, Montserrat;
        font-size: 40.04px;
        font-variation-settings: 'wght' 500;
        font-weight: 500;
      }

      .cls-5 {
        letter-spacing: 0em;
      }

      .cls-6 {
        fill: #fff;
      }

      .cls-6, .cls-7 {
        stroke-width: 0px;
      }

      .cls-8 {
        letter-spacing: 0em;
      }

      .cls-7 {
        fill: #65abc4;
      }
    </style>
  </defs>
  <g>
    <ellipse class="cls-6" cx="172.1" cy="136.96" rx="125.71" ry="125.89"/>
    <g>
      <path class="cls-7" d="M295.76,112.9c1.05,5.5,1.74,11.12,2.04,16.85-20.38-.05-40.41-15.43-59.23-20.72-20.84-5.87-43.51-5.46-62.26,5.71-7.5,4.47-13.75,10.45-20.97,15.24-16.25,10.82-37.64,5-53.43-3.58-24.5-13.3-44.47-12.72-54.35-11.14,1.01-5.91,2.43-11.69,4.22-17.28,10.77-.99,28.72.02,50.13,11.64,15.79,8.55,37.18,14.4,53.43,3.58,7.22-4.81,13.48-10.77,20.97-15.24,18.75-11.19,41.42-11.58,62.26-5.73,18.18,5.11,37.52,19.67,57.19,20.68Z"/>
      <path class="cls-7" d="M297.66,145.45c-.37,5.3-1.05,10.5-2.09,15.61-19.62-1.1-38.88-15.54-57.01-20.65-20.84-5.87-43.51-5.46-62.26,5.71-7.5,4.47-13.75,10.45-20.97,15.24-16.25,10.82-37.64,5-53.43-3.58-25.67-13.94-46.37-12.65-55.7-10.91h-.02c-.28-3.42-.41-6.85-.41-10.34,0-1.77.05-3.53.11-5.27,9.17-1.77,30.05-3.28,56.02,10.82,15.79,8.57,37.18,14.42,53.43,3.6,7.22-4.81,13.48-10.8,20.97-15.24,18.75-11.19,41.42-11.58,62.26-5.73,18.77,5.27,38.76,20.63,59.09,20.74Z"/>
      <path class="cls-7" d="M291.57,176.35c-1.65,4.97-3.62,9.83-5.87,14.51-16.21-4.13-32.05-14.83-47.13-19.07-20.84-5.87-43.51-5.46-62.26,5.71-7.5,4.47-13.75,10.45-20.97,15.24-16.25,10.82-37.64,5-53.43-3.58-20.88-11.32-38.46-12.54-49.33-11.69-1.72-4.95-3.12-10.04-4.17-15.24,10.13-1.49,29.68-1.67,53.5,11.25,15.79,8.55,37.18,14.4,53.43,3.58,7.22-4.81,13.48-10.77,20.97-15.24,18.75-11.19,41.42-11.58,62.26-5.73,16.89,4.74,34.77,17.65,53,20.26Z"/>
      <path class="cls-7" d="M278.27,204.25c-2.68,4.22-5.62,8.25-8.76,12.1-10.57-4.7-20.93-10.36-30.95-13.18-20.84-5.87-43.51-5.46-62.26,5.71-7.5,4.47-13.75,10.45-20.97,15.27-16.25,10.8-37.64,4.97-53.43-3.6-12.38-6.72-23.61-9.86-32.96-11.16-3.69-5.2-7.01-10.7-9.88-16.46h.02c10.8.14,25.7,2.66,42.82,11.94,15.79,8.57,37.18,14.4,53.43,3.58,7.22-4.79,13.48-10.77,20.97-15.24,18.75-11.16,41.42-11.58,62.26-5.71,12.77,3.58,26.09,11.81,39.7,16.76Z"/>
      <path class="cls-7" d="M291.98,97.96c-18.36-2.48-36.4-15.52-53.41-20.31-20.84-5.87-43.51-5.46-62.26,5.71-7.5,4.47-13.75,10.45-20.97,15.24-16.25,10.82-37.64,5-53.43-3.58-17.88-9.72-33.38-12.03-44.26-11.94C77.75,40.15,121.32,10.42,171.87,10.42c56.21,0,103.82,36.74,120.11,87.54Z"/>
      <path class="cls-7" d="M260.12,226.62c-3.28,3.23-6.74,6.26-10.36,9.1-3.35-1.4-6.65-2.61-9.93-3.53-20.81-5.87-43.48-5.46-62.23,5.71-7.5,4.47-13.75,10.45-20.97,15.24-4.91,3.26-10.25,5.02-15.79,5.64h-.02c-21.39-5.43-40.62-16.32-56.09-31.11,5.41,1.79,11.16,4.19,17.19,7.47,15.79,8.57,37.18,14.4,53.43,3.58,7.22-4.79,13.48-10.77,20.97-15.24,18.75-11.16,41.42-11.58,62.26-5.71,7.04,1.97,14.23,5.39,21.55,8.85Z"/>
      <path class="cls-7" d="M176.31,252.68c17.56-10.45,38.58-11.48,58.29-6.74-18.48,10.61-39.91,16.69-62.74,16.69-2.98,0-5.94-.11-8.87-.32,4.31-3.35,8.57-6.79,13.32-9.63Z"/>
    </g>
  </g>
  <!-- <text class="cls-4" transform="translate(75.02 318.32)"><tspan x="0" y="0">Blu</tspan><tspan class="cls-5" x="68.59" y="0">e</tspan><tspan class="cls-2" x="92.69" y="0">w</tspan><tspan class="cls-3" x="128.01" y="0">a</tspan><tspan class="cls-1" x="151.55" y="0">y</tspan><tspan class="cls-8" x="173.65" y="0">s</tspan></text> -->
</svg>