<?xml version="1.0" encoding="UTF-8"?>
<svg id="Layer_1" data-name="Layer 1" xmlns="http://www.w3.org/2000/svg" viewBox="0 0 360 329.01">
  <defs>
    <style>
      .cls-1 {
        letter-spacing: 0em;
      }

      .cls-2 {
        letter-spacing: -.02em;
      }

      .cls-3 {
        fill: #57af69;
      }

      .cls-3, .cls-4, .cls-5, .cls-6, .cls-7 {
        stroke-width: 0px;
      }

      .cls-4 {
        fill: #e8c581;
      }

      .cls-8 {
        fill: #231f20;
        font-family: MontserratRoman-Medium, Montserrat;
        font-size: 40.04px;
        font-variation-settings: 'wght' 500;
        font-weight: 500;
      }

      .cls-9 {
        letter-spacing: -.01em;
      }

      .cls-10 {
        letter-spacing: 0em;
      }

      .cls-5 {
        fill: #e69b24;
      }

      .cls-6 {
        fill: #fff;
      }

      .cls-7 {
        fill: #228d44;
      }
    </style>
  </defs>
  <g>
    <path class="cls-4" d="M303.24,136.53c0,9.74-1.1,19.24-3.21,28.33l-3.58-.34c-15.84-1.15-63.42-1.97-110.08,23.08-50.15-50.7-110.26-49.64-130.63-47.55l-3.35.11c-.05-1.19-.07-2.41-.07-3.63,0-69.3,56.16-125.46,125.46-125.46s125.46,56.16,125.46,125.46ZM243.75,93.57c0-14.47-11.76-26.22-26.22-26.22s-26.22,11.76-26.22,26.22,11.73,26.22,26.22,26.22,26.22-11.73,26.22-26.22Z"/>
    <path class="cls-6" d="M186.37,187.6c46.66-25.05,94.24-24.22,110.08-23.08l3.58.34c-.92,4.02-2.04,7.97-3.35,11.85-49.97-2.57-87.69,11.55-114.65,28.77l-.64-1.84v-.02l-4.27-4.36c-1.22-1.22-2.57-2.5-4.02-3.81,4.41-2.89,8.84-5.49,13.27-7.85Z"/>
    <path class="cls-7" d="M182.03,205.48c26.96-17.22,64.68-31.34,114.65-28.77-16.74,49.57-63.65,85.28-118.9,85.28-16.26,0-31.78-3.1-46.04-8.7,6.61-9.62,22.87-30.31,50.29-47.81Z"/>
    <path class="cls-5" d="M217.52,67.34c14.47,0,26.22,11.76,26.22,26.22s-11.76,26.22-26.22,26.22-26.22-11.73-26.22-26.22,11.73-26.22,26.22-26.22Z"/>
    <path class="cls-6" d="M181.38,203.65l.64,1.84c-27.42,17.5-43.67,38.19-50.29,47.81-3.65-1.45-7.21-3.05-10.68-4.82l1.42-2.87c14.95-22.11,32.47-38.32,50.61-50.15,1.45,1.31,2.8,2.59,4.02,3.81l4.27,4.36v.02Z"/>
    <path class="cls-6" d="M186.37,187.6c-4.43,2.37-8.86,4.96-13.27,7.85-20.05-18.51-61.47-47.39-119.4-40.34-.73-4.89-1.17-9.87-1.31-14.95l3.35-.11c20.37-2.09,80.48-3.15,130.63,47.55Z"/>
    <path class="cls-3" d="M173.09,195.45c-18.14,11.83-35.66,28.04-50.61,50.15l-1.42,2.87c-35.52-18.03-61.31-52.47-67.37-93.36,57.93-7.05,99.36,21.84,119.4,40.34Z"/>
  </g>
  <!-- <text class="cls-8" transform="translate(121.56 318.32)"><tspan class="cls-9" x="0" y="0">P</tspan><tspan class="cls-10" x="28.31" y="0">a</tspan><tspan class="cls-1" x="52.25" y="0">r</tspan><tspan class="cls-2" x="68.39" y="0">k</tspan><tspan class="cls-10" x="92.37" y="0">s</tspan></text> -->
</svg>