<?xml version="1.0" encoding="UTF-8"?>
<svg id="Layer_1" data-name="Layer 1" xmlns="http://www.w3.org/2000/svg" viewBox="0 0 360 329.01">
  <defs>
    <style>
      .cls-1 {
        letter-spacing: 0em;
      }

      .cls-2 {
        fill: #231f20;
        font-family: MontserratRoman-Medium, Montserrat;
        font-size: 26px;
        font-variation-settings: 'wght' 500;
        font-weight: 500;
      }

      .cls-3 {
        letter-spacing: 0em;
      }

      .cls-4 {
        letter-spacing: .01em;
      }

      .cls-5 {
        fill: #cc7a68;
      }

      .cls-5, .cls-6 {
        stroke-width: 0px;
      }

      .cls-6 {
        fill: #fff;
      }
    </style>
  </defs>
  <g>
    <path class="cls-5" d="M184.4,57.61c44.96,0,81.38,36.43,81.38,81.38s-36.43,81.38-81.38,81.38-81.38-36.43-81.38-81.38,36.43-81.38,81.38-81.38ZM257.49,138.99c0-40.37-32.72-73.1-73.1-73.1s-73.1,32.72-73.1,73.1,32.72,73.1,73.1,73.1,73.1-32.72,73.1-73.1Z"/>
    <path class="cls-6" d="M184.4,65.9c40.37,0,73.1,32.72,73.1,73.1s-32.72,73.1-73.1,73.1-73.1-32.72-73.1-73.1,32.72-73.1,73.1-73.1ZM248.69,138.99c0-35.5-28.78-64.27-64.29-64.27s-64.27,28.78-64.27,64.27,28.78,64.29,64.27,64.29,64.29-28.79,64.29-64.29Z"/>
    <path class="cls-5" d="M184.4,74.72c35.51,0,64.29,28.78,64.29,64.27s-28.78,64.29-64.29,64.29-64.27-28.79-64.27-64.29,28.78-64.27,64.27-64.27ZM206.18,138.99c0-12.02-9.76-21.77-21.78-21.77s-21.77,9.74-21.77,21.77,9.74,21.78,21.77,21.78,21.78-9.76,21.78-21.78Z"/>
    <path class="cls-5" d="M184.4,119.72c10.65,0,19.29,8.63,19.29,19.28s-8.64,19.28-19.29,19.28-19.28-8.63-19.28-19.28,8.63-19.28,19.28-19.28ZM187.33,138.99c0-1.62-1.32-2.94-2.94-2.94s-2.94,1.32-2.94,2.94,1.32,2.94,2.94,2.94,2.94-1.32,2.94-2.94Z"/>
    <circle class="cls-6" cx="184.4" cy="138.99" r="2.94"/>
    <path class="cls-6" d="M162.63,138.99c0-12.02,9.74-21.77,21.77-21.77s21.78,9.74,21.78,21.77-9.76,21.78-21.78,21.78-21.77-9.76-21.77-21.78ZM184.4,119.72c-10.65,0-19.28,8.63-19.28,19.28s8.63,19.28,19.28,19.28,19.29-8.63,19.29-19.28-8.64-19.28-19.29-19.28Z"/>
  </g>
  <!-- <text class="cls-2" transform="translate(116.7 257.04)"><tspan x="0" y="0">Pl</tspan><tspan class="cls-1" x="26.03" y="0">a</tspan><tspan class="cls-4" x="41.31" y="0">y</tspan><tspan class="cls-3" x="56.24" y="0">fields</tspan></text> -->
</svg>