<?xml version="1.0" encoding="UTF-8"?>
<svg id="Layer_1" data-name="Layer 1" xmlns="http://www.w3.org/2000/svg" viewBox="0 0 2125.98 1700.79">
  <defs>
    <style>
      .cls-1 {
        fill: #231f20;
      }

      .cls-1, .cls-2, .cls-3, .cls-4, .cls-5, .cls-6 {
        stroke-width: 0px;
      }

      .cls-2 {
        fill: #e0bd81;
      }

      .cls-7 {
        stroke: #87ca90;
      }

      .cls-7, .cls-8 {
        fill: none;
        stroke-miterlimit: 10;
      }

      .cls-8 {
        stroke: #dca399;
        stroke-width: 2px;
      }

      .cls-3 {
        fill: #59a66a;
      }

      .cls-4 {
        fill: #66a2bb;
      }

      .cls-5 {
        fill: #c37a68;
      }

      .cls-6 {
        fill: #fff;
      }
    </style>
  </defs>
  <path class="cls-6" d="M1192.38,1082.39c-36.53,56.01-113.82,126.64-113.82,126.64l39.54-221.62h115.68s-4.87,38.97-41.4,94.98Z"/>
  <path class="cls-6" d="M1247.44,777.74c-3.87-72.59-23.65-137.94-24.49-140.68-19.83-64.9-46.99-153.78-104.07-156.39-3.23-.16-6.28.02-9.35.58,1.77-3.6,3.19-7.54,3.87-11.95,2.41-15.56-4.41-31.06-20.28-46.09-92.76-87.84-184.97-123.14-196.48-127.32-59.95-27.11-123.25-41.03-188.12-41.37-43.84-.28-87.85,5.92-130.42,18.28-26.58,3.02-50.7,10.44-71.69,22.07-13.28,7.36-31.17,19.36-36.54,39.41-2.41-1.26-4.93-2.42-7.75-3.27-27.9-8.41-62.38,5.76-75.3,30.93-.44.86-.72,1.67-1.09,2.51-25.4.73-57.26,32.69-76.32,54.82-2.81,3.26-4.88,5.81-6.51,8.04l-2.07,2.84-1.15,3.33c-.79,2.28-1.34,4.32-1.81,6.33-7.4,1.48-14.14,5.82-20.2,13.03-57.91,68.7-79.93,140.65-80.84,143.68-4.89,16.28-6.72,22.38-7.39,27.42-.89,6.76-1.09,13.11-.73,19.2-17.85,7.6-26.16,35.97-32,102.75-6.26,71.4,1.36,129.07,6.45,157.07.44,2.44,11.13,60.39,36.05,121.75,5.5,13.55,11.25,25.78,11.52,26.37,10.04,21.14,19.9,37.74,30.36,55.34,1.33,2.24,33.24,55.36,93.77,107.16,4.59,3.93,18.07,15.46,36.72,15.46,1.02,0,2.07-.03,3.12-.11,7.74-.53,14.41-2.97,20.18-6.32,3.67,48.78,112.53,106.58,235.79,123.68,20.93,2.9,52.7,6.36,85.12,6.36,45.01,0,91.15-6.74,111.29-30.84,8.87,6.82,18.68,9.33,28.43,9.33,18.8,0,37.33-9.26,48.17-14.69l.65-.33c81.99-40.96,115.92-57.91,129.68-68.66,6.76-5.28,164.99-129.9,126.65-184.27-6.21-8.81-14.77-11.88-17.6-12.9-1.51-.54-3.02-.98-4.53-1.41,39.04-16.63,49.58-23.3,59.17-32.51,31.24-29.98,36.38-67.24,44.18-123.65,3.15-22.83,8.43-61.05,5.55-114.96ZM611.44,893.78l-1.26,2.89s-.06,0-.09-.01l1.31-2.91s.04.02.05.03ZM339.42,866.1c-.2.41-.39.82-.58,1.25-.28-.46-.57-.95-.87-1.43.49.06.96.12,1.45.18Z"/>
  <g>
    <path class="cls-3" d="M818.41,1015.55c-5.07-3.3-12.16-7.32-16.03-15.86-4.38-9.68-2.06-19.47-1.23-22.95,27.6-116.39,67.06-215.53,103.09-271.72,13.36-20.83,25.9-37.83,35.05-49.65,0,0,6.13-7.93,12.39-15.57,59.73-72.84,135.16-121.38,135.16-121.38,20.92-13.46,25.75-14.65,30.98-14.41,40.62,1.86,66.94,88.01,82.8,139.89.92,3.02,19.82,66.17,23.5,135.1,2.71,50.67-2.08,86.73-5.36,110.52-7.62,55.17-12.33,86.11-37.21,109.99-6.55,6.29-14.17,11.77-54.27,28.77-39.1,16.57-72.93,28.76-98.67,37.38,0,0-67.98,23.96-122.29,22.7-6.08-.14-10.62-1.6-11.79-1.99-10.32-3.46-16.54-10.56-18.97-13.3-28.43-32.05-42.64-48.08-57.15-57.51Z"/>
    <path class="cls-2" d="M442.9,1171.3c10.58-12.01,15.79-16.28,22.49-23.32,23.37-24.54,45.29-61.62,53.08-75.71,2.17-3.93,7.9-14.55,18.44-17.12,8.11-1.98,15.42,1.69,18.58,3.25,0,0,34.53,17.04,88.99,34.3,14.55,4.61,29.52,9.35,50.22,11.08,5.74.48,40.46,3.11,58.49,11.02,3.25,1.43,7.9,3.87,11.9,8.51,4.33,5.01,5.93,10.27,6.63,12.77,5.87,20.97,13.16,80.88,22.28,113.16,10.32,36.58,23.22,38.47,19.05,50.93-11.67,34.87-116.51,31.63-179.16,22.94-127.68-17.71-218.11-77.16-215.74-103.86.65-7.31,3.76-16.03,3.76-16.03,3.59-10.06,9.05-18.35,21-31.92Z"/>
    <path class="cls-5" d="M803.63,1145.83c3.29-7.06,7.88-12.44,7.88-12.44,0,0,0,0,0,0,2.59-2.71,8.58-8.12,17.5-10.25,4.48-1.07,5.78-.38,10.95.03,0,0,1.64.22,7.98.24,97.12.28,159.74-19.47,159.74-19.47,55.37-17.45,92.98-44.04,127.52-31.68,1.92.69,4.54,1.75,6.39,4.37,15.41,21.85-58.07,102.48-121.94,152.4-11.9,9.3-49.85,28.26-125.74,66.17-12.75,6.37-38.18,19.41-52.79,7.92-4.23-3.33-8.35-9.97-8.68-10.52,0,0-3-4.9-8.54-21.63-17.68-68.83-22.67-119.99-20.27-125.14Z"/>
    <path class="cls-4" d="M797.93,1085.13c-1-1.87-1-5.39-.98-12.33.02-4.65.04-7.01.52-8.31,2.15-5.75,8.05-8.16,9.65-8.74,1.17-.43,6.59-2.37,11.52-.03.24.11,2.63,2.07,7.43,5.99,1.36,1.11,2.33,1.91,3.52,3.18,1.46,1.55,2.72,3.24,3.29,4.02,0,0,.6.81,1.11,1.56,1.55,2.26,7.53,10.97,5.25,15.98-1.32,2.9-5.72,3.65-14.5,5.14-7.65,1.3-12.46,2.15-18.03-.05-3.06-1.21-6.81-2.69-8.78-6.39Z"/>
    <path class="cls-4" d="M579.35,933.18c2.92-3.74,7.16-9.02,14.43-11.78,9.05-3.44,17.72-1.06,22.18.31,27.62,8.47,63.06,29.95,66.35,31.96,50.95,31.13,34.95,20.28,72.09,48.35,59.8,45.21,93.06,70.34,87.76,83.33-6.08,14.9-59.94,6.54-104.82-.43-57.88-8.99-45.74-10.34-101.26-25.05-19.48-5.16-56.5-13.09-71.36-28.02-7.4-7.44-9.84-16.06-9.84-16.06-1.06-3.76-1.89-9.22-.05-19.2,2.16-11.68,5.16-14.33,10.95-29.53,7.37-19.33,6.03-24.24,13.56-33.87Z"/>
    <path class="cls-4" d="M529.73,892.5c5.94,2.83,11.69,6.24,15.48,12.66,5.01,8.48,4.06,17.94,3.58,22.76-.55,5.52-1.65,7.65-5.83,19.67-8.5,24.46-7.73,26.46-12.21,32.29-2.65,3.45-9,11.71-18.99,13.92-9.31,2.06-17.4-2.12-30.34-10-16.39-9.98-26.38-17.24-33.74-23.26-12.62-10.32-12.86-11.58-22.61-19.58-30.82-25.31-50.68-29.62-62.46-53.17-3.6-7.2-3.08-9.47-2.64-10.6,3.96-10.03,30.93-2.87,90.89.08,0,0,50.23,1.61,78.85,15.25Z"/>
    <path class="cls-3" d="M350.05,1195.8c4.14,3.55,12.57,10.53,23.05,9.8,12.9-.89,21.5-12.95,27.9-21.61,18.49-25.02,40.1-47.58,59.28-72.07,21.42-27.33,33.36-36.82,35.01-57.73.34-4.28.99-13.79-3.13-24.57-7.76-20.32-25.08-25.88-57.49-46.85-17.2-11.13-28.47-20.01-47.07-34.67-41.1-32.39-52.72-45.57-56.35-50.05-4.26-5.27-6.84-9.01-26.12-41.56-20.98-35.41-31.46-53.12-43.06-73.8-24.42-43.54-36.63-65.31-42.66-79.34-11.29-26.29-14.11-39.32-19.52-39.09-12.64.53-18.94,72.57-19.91,83.64-6.66,76.06,3.23,134.67,6.17,150.86,0,0,10.41,57.31,34.71,117.14,5.33,13.12,10.99,25.14,10.99,25.14,9.58,20.18,19.22,36.4,29.34,53.43,0,0,30.57,51.45,88.87,101.35Z"/>
    <path class="cls-2" d="M380.32,712.94c-10.11-9.13-10.88-10.31-19.6-18.08-12.5-11.14-17.96-15.18-24.44-22.25-.42-.46-1.04-1.13-1.82-2.01-5.54-6.25-29.07-36.99-29.78-69.53-.9-41.13,35.01-69.12,27.13-91.47-.58-1.66-3.62-9.54-8.08-18.98,0,0-4.1-6.25-8.76-15.92-2.1-4.37-5.47-11.75-10.74-12.12-3.96-.28-7.23,3.54-8.7,5.29-55.45,65.79-76.33,135.34-76.33,135.34-4.12,13.73-6.18,20.59-6.59,23.74-5.63,42.79,23.26,65.64,67.03,144.77,8.72,15.76,21.63,29.14,29.02,45.56,2.03,4.5,6.25,14.49,16.4,20.56,5.98,3.58,11.66,4.39,14.56,4.75,47.04,5.95,77.36,9.78,93.3-9.56,10.61-12.86,10.55-30.76,10.53-39.93-.02-5.94-.05-17.98-6.17-30.64-9.28-19.21-21.93-17.88-56.97-49.52Z"/>
    <path class="cls-2" d="M571.29,835.43c20.08-63.12,9.04-146.67,9.04-146.67-3.43-25.95-8.15-60.86-19.78-107.75-8.99-36.25-18.04-61.82-36.15-112.95h0c-32.08-75.68-38.72-94.82-57-107.75-5.35-3.79-8.48-5.89-12.02-6.96-16.73-5.04-39.92,3.92-47.78,19.23-6.52,12.71,3.13,18.85,11.12,64.86,5.19,29.87,3.97,43.65,2.64,52.09-2.19,13.87-6.77,26.52-8.08,30.03-4.61,12.37-8.14,17.34-11.06,23.79-14.98,33.11,1.39,71.85,3.61,76.91,5.18,11.82,12.39,20.12,26.82,36.72,20.55,23.64,31.38,30.26,56.96,58.73,3.38,3.76,11.32,12.73,18.04,26.46,4.57,9.33,10.36,21.17,9.84,36.08-.25,7.02-3.72,16.52-10.65,35.21-8.63,23.27-10.96,26.04-8.99,31.1,5.66,14.51,34.12,15.4,38.17,15.53,6.46.2,13.83.36,20.95-4.03,8.44-5.2,12.23-14.08,14.32-20.64Z"/>
    <path class="cls-5" d="M613.89,888.19c-2.85-1.25-10.93-4.57-14.58-12.43-2.23-4.79-1.9-9.3-1.82-10.63,12.23-191.91.33-254.62.33-254.62-16.42-86.53-96.48-224.09-105.18-256.56-.67-2.5-1.61-6.97-.57-12.23,1.5-7.57,7.01-16.11,25.67-26.45,11.74-6.5,33.14-16.19,64.94-19.5,31.23-9.22,74.26-18.18,125.72-17.91,80.11.42,142.82,23.02,179.46,39.67,0,0,94.67,33.09,189.21,122.62,5.93,5.61,14.85,15.25,13.25,25.54-1.14,7.35-7.44,13.56-12.69,18.73-7.17,7.07-13.89,10.9-14.57,11.29-18.54,10.68-92.07,78.45-110.94,97.35-94.46,94.59-167.58,314.68-173.57,337-.86,3.19-3.95,15.8-14.22,21.81-7.35,4.31-15.32,3.44-16.24,3.33-7.42-.91-12.49-4.98-14.13-6.24-19.79-15.19-103.12-53.38-120.05-60.79Z"/>
    <path class="cls-4" d="M478.09,838.42c20.07-37.47,18.48-62.56,13.82-78.18-10.19-34.17-39.1-36.61-81.96-88.3-29.92-36.09-44.88-54.14-45.04-80.03-.19-32.14,22.1-47.83,29.95-105.59,1.68-12.33,2.14-22.52,2.28-28.99.99-11.68.52-20.68-.14-26.88-.26-2.5-.61-4.96-1.16-10.28-.79-7.62-1.24-13.66-1.62-18.45-.49-2.04-1.27-4.65-2.58-7.53-1.33-2.91-2.29-5.01-3.29-5.87-6.22-5.3-36.83,17.84-61.25,46.19-2.46,2.85-4.14,4.94-5.33,6.56-.58,1.69-1.1,3.39-1.42,5.12-.65,3.49-.2,6.63.86,9.58,20.49,19.75,38.58,45.06,30.15,74.49-4.04,14.11-12.5,26.07-20.24,38.33-1.21,1.91-2.4,3.83-3.59,5.75-3.46,8.91-5.49,18.68-4.14,30.06,5.4,45.31,61.3,90.56,113.65,132.93,7.85,6.36,24.03,18.89,24.54,36.16.28,9.66-5.18,44.66-7.13,51.37-2.32,7.98-5.44,11.17-3.68,14.86,2.26,4.73,10.23,5.42,13.15,5.68,2.53.22,7.06.62,11.08-1.63.04-.02.08-.05.12-.08,1.01-1.74,2-3.5,2.96-5.27Z"/>
    <path class="cls-7" d="M217.36,929.31c-8.6-39.47-10.48-57.16-10.48-57.16-6.21-58.22-18.13-169.9-5.12-172.34,11.6-2.18,34.15,84.2,72.64,150.57,2.78,4.79,12.34,21.04,24.24,40.58,15.75,25.87,23.63,38.81,28.47,45.07,19.08,24.66,41.17,37.28,63.79,51.81,34.16,21.93,51.22,23.4,63.8,45.3,2.87,4.99,8.12,14.38,7.98,26.35-.21,18.16-12.63,27.36-31.7,48.52-25.36,28.14-23.15,43.98-42.69,53.43-5.87,2.84-14,6.77-24.23,5.55-8.81-1.05-19.73-6-48.93-45.43-12.74-17.21-21.31-30.64-21.93-31.63-29.31-46.17-24.79-48.41-57.81-109.67-.56-1.04-.57-1.07-.72-1.35-10.82-20.44-16.22-44.61-17.3-49.59Z"/>
    <path class="cls-8" d="M523.42,353.11c24.55-59.04,177.41-49.18,256-35.11,111.27,19.92,255.15,80.79,251.61,141.9-1.46,25.21-27.69,44.9-52.66,58.51,0,0,0,0,0,0-88.07,79.26-131.12,164.63-141.89,185.78-11.21,22.01-33.36,66.11-49.74,127.27-13.58,50.71-16.02,86.38-36.57,92.16-16.35,4.6-23.22-14.88-65.83-32.18-38.01-15.43-58.56-8.57-67.29-24.87-6.07-11.34-.23-22.31,5.85-45.35,0,0,2.09-7.92,10.24-86.31,8.45-81.24-25.22-186.66-27.79-194.56-41.28-126.59-97.82-149-81.92-187.24Z"/>
    <path class="cls-8" d="M678.49,307.56c-1.9,10.82-5.6,40.44,11.7,66.03,17.83,26.38,47.17,32.52,80.46,39.5,33.45,7.01,60.05,12.58,84.85-2.93,28.54-17.85,35.36-51.55,36.95-61.01"/>
    <path class="cls-8" d="M653.43,882.07c-5.52-16.12-1.1-33.16,10.42-41.83,16.1-12.13,37.2-1.23,42.42,1.46,5.91,3.05,23.76,12.27,24.8,30.71.72,12.89-7.04,25.54-19.62,32.72"/>
    <path class="cls-8" d="M625.69,622.02c20.75-4.63,64.12-11.38,115.7,3.18,54.58,15.4,89.2,46.42,104.18,61.61"/>
    <path class="cls-8" d="M793.24,646.81c-5.82,13.88-26.55,19.33-41.83,17.44-20.86-2.58-44.63-20.47-42.2-42.2,2-17.93,21.04-31.39,38.03-31.96,29.21-.98,54.68,36.03,46,56.72Z"/>
  </g>
  <path class="cls-6" d="M1706.52,793.72l14.8-9.72-6.21-17.95c-8.73-25.23-26.87-47.38-53.98-65.89-31.56-21.44-68.22-32.31-108.96-32.31s-80.08,11.49-112.4,34.14l-.43.31c-24.2,17.78-41.42,38.78-51.18,62.41l-7.7,18.64,50.23,32.99,13.33-14.2c11.93-12.71,26.16-21.85,43.49-27.96,18.22-6.42,39.8-9.68,64.13-9.68,12.31,0,24.09.99,35.02,2.94,10.89,1.94,20.74,4.53,29.28,7.7l.23.08c12.56,4.51,23.73,10.71,33.35,18.5h-5.23v14.7c-5.03-2.1-10.14-3.92-15.31-5.45-10.25-3.71-21.01-6.22-32.01-7.48-10.31-1.17-22.9-1.77-37.4-1.77-46.33,0-85.28,12.46-115.77,37.03-32.19,25.95-48.51,56.67-48.51,91.29,0,2.65.1,5.26.29,7.85-5.3-31.26-19.97-59.03-43.81-82.82-25.08-25.37-57.53-41.78-96.86-49.04,9.07-3.93,19.48-9.88,31.75-18.09l.19-.13c1.82-1.24,3.62-2.49,5.4-3.74v27.89h68.52v-181.22h-68.52v2.57c-3.1-.73-6.25-1.28-9.43-1.64-5.5-.63-11.85-.93-19.41-.93-25.17,0-46.51,6.91-63.44,20.55-1.27,1.03-2.48,2.06-3.65,3.1v-13.2h-47.93v-10.45h-68.52v3.44c-5.42-2.09-11.85-3.44-19.41-3.44-8.58,0-16.77,2.15-24,6.27-7.65-4.16-16.11-6.27-25.2-6.27-11.56,0-22.19,3.72-30.78,10.79-7.69,6.37-16.86,18.2-16.86,38.41,0,9.75,3.29,19.05,9.78,27.66l.41.52c2.38,2.98,5.06,5.65,8.02,8.01-11.01,12.27-13.86,25.6-13.86,36.12,0,12.02,4.03,29.3,23.18,43.41,14.61,10.97,33.96,16.3,59.14,16.3,10.32,0,20.25-1.29,29.61-3.84v3.84h51.4c-23.15,7.11-43.6,17.9-61.15,32.34l-.34.28c-32.9,28.09-49.58,61.76-49.58,100.06,0,18.87,4.37,36.45,12.99,52.24,6.56,12.04,15.67,22.62,27.17,31.57.95,24.02,10.88,45.19,29.58,62.97,23.72,22.54,58.9,33.97,104.56,33.97,1.39,0,2.77-.01,4.14-.03-9.65,9.98-14.56,20.97-14.56,32.68,0,14.83,5.59,41.69,43,55.04,17.15,6.39,37.84,9.5,63.25,9.5,21.67,0,40.95-2.74,57.34-8.16,13.55-4.5,23.45-10.47,29.63-17.85l82.32,32.16,53.79-51.81-108.91-45.36,30.99-34.64c2.63,2.08,5.33,4.14,8.09,6.15,4.78,3.5,8.55,6.31,11.2,8.34l.76.58.8.52c13.44,8.67,25.11,12.88,35.69,12.88,23.12,0,55.51-14.46,101.96-45.52l.19-.13c17.71-12.1,34.46-24.46,50.1-36.99v82.64h91.69v-323.68h-29.47ZM1443.51,1032.64h-23.42v36.76h-19.61c-1.39-.35-7.79-2.35-23.48-12.34-4-2.55-7.47-4.78-10.48-6.75,6.16-9.45,11.79-19.93,16.83-31.36,9.61-21.78,14.48-42.57,14.48-61.77,0-5.23-.24-10.37-.7-15.43,4.78,25.11,18.88,46.96,41.49,63.97l.29.22c11.61,8.46,24.78,15.27,39.29,20.36-13.71,4.22-25.34,6.35-34.69,6.35Z"/>
  <g>
    <g>
      <path class="cls-1" d="M1124.98,779.97h-21.67v-18.55c-7.14,6.1-15.17,10.71-24.09,13.85-8.92,3.13-18.57,4.7-28.94,4.7-19.89,0-35.02-3.91-45.38-11.73-9.01-6.6-13.51-14.6-13.51-23.98,0-13.03,7.9-23.55,23.71-31.54,5.61-2.78,14.11-6.08,25.49-9.91,7.99-2.43,14.36-5.99,19.12-10.69,4.76-4.69,7.14-9.56,7.14-14.6,0-5.39-.51-9.56-1.53-12.51-1.53-4.87-4.68-7.3-9.43-7.3-4.25,0-7.48,2.33-9.69,6.98-1.7,5.17-2.55,11.38-2.55,18.62h-14.02c0-17.06-4-25.6-11.98-25.6-7.14,0-10.71,5.1-10.71,15.31,0,4.67.42,8.3,1.27,10.89,1.19,2.77,3.48,5.36,6.88,7.78l-5.13,3.63c-7.72-1.56-13.73-5.02-18.02-10.39-3.26-4.33-4.89-8.66-4.89-12.99,0-8.66,2.72-15.24,8.16-19.75,4.42-3.64,9.77-5.46,16.06-5.46,5.78,0,10.96,1.42,15.55,4.24,4.59,2.83,7.48,6.73,8.67,11.69h2.04c.68-3.94,3.23-7.58,7.65-10.92,4.42-3.34,9.52-5.01,15.3-5.01,8.67,0,15.51,2.79,20.52,8.36,5.01,5.58,7.52,12.54,7.52,20.9,0,10.97-6.1,20.11-18.29,27.43-5.43,3.31-14.15,6.79-26.17,10.45-4.41,1.57-8.47,3.05-12.2,4.44-3.73,1.4-6.61,2.79-8.64,4.18-6.78,3.83-10.16,8.53-10.16,14.11s3.64,9.71,10.93,12.41c7.29,2.7,16.78,4.05,28.47,4.05,9.49,0,18.22-1.48,26.18-4.45,10.17-3.84,18.39-9.95,24.66-18.33v-83.53h21.67v133.22Z"/>
      <path class="cls-1" d="M1172.9,779.97h-22.95v-122.77h22.95v122.77Z"/>
      <path class="cls-1" d="M1337.34,779.97h-21.67v-53.29c-12.07,11.32-26,22.38-41.81,33.18-20.06,13.41-34.42,20.11-43.09,20.11-2.89,0-6.63-1.48-11.22-4.44-1.36-1.05-3.23-2.44-5.61-4.18-2.38-1.74-4.59-3.48-6.63-5.22v-3.92c7.14,0,15.97-1.91,26.52-5.75,7.65-2.96,13.89-5.57,18.74-7.84,4.84-2.26,9.31-4.53,13.38-6.79-12.24,0-22.73-1.09-31.49-3.27-8.76-2.18-16.36-5.62-22.82-10.32-10.88-8.18-16.32-18.55-16.32-31.09s6.37-24.73,19.12-35c12.75-10.27,29.06-15.41,48.95-15.41,6.63,0,12.24.26,16.83.78,4.59.52,9.01,1.57,13.26,3.13,7.82,2.27,15.21,6.1,22.18,11.49v-15.41h21.67v133.22ZM1315.67,710.22v-19.85c-5.1-5.4-11.85-9.53-20.27-12.41-8.41-2.87-19.34-4.31-32.76-4.31s-25.45,2.66-35.05,7.97c-9.6,5.31-14.4,12.24-14.4,20.77s5.06,15.54,15.17,21.55c10.11,6.01,22.73,9.01,37.86,9.01,4.08,0,8.24-.43,12.49-1.31,4.25-.87,8.58-2.09,13-3.66,10.03-4,18.01-9.93,23.96-17.76Z"/>
    </g>
    <g>
      <path class="cls-1" d="M1399.73,1093.4l-23.21,25.95c-6.68,0-14.6-4.15-23.74-12.43-25.32-23.78-38.87-36.03-40.62-36.76-1.76-.72-2.82-2.88-3.17-6.49,0-4.68,1.58-9,4.75-12.97,9.5-9.37,16.7-20.9,21.63-34.59,3.16-9.37,4.75-20.36,4.75-32.97,0-34.59-9.85-60.72-29.54-78.38-22.51-20.9-57.86-31.35-106.04-31.35-39.04,0-70.35,7.48-93.9,22.43-23.57,14.96-35.35,34.15-35.35,57.57,0,7.21,1.05,13.7,3.17,19.46,2.11,5.77,5.8,11.35,11.08,16.76,1.76-3.6,3.77-7.2,6.07-10.81,2.28-3.6,4.83-7.11,7.65-10.54,2.81-3.42,5.62-6.39,8.44-8.92,2.81-2.52,6.86-5.41,12.13-8.65,8.09,0,16.79,2.43,26.11,7.3,9.31,4.86,13.98,10.19,13.98,15.95l-1.05,4.86c-5.63,2.89-9.32,5.05-11.08,6.49-5.28,3.97-9.5,8.84-12.66,14.6-4.57,7.93-6.86,16.58-6.86,25.95,0,16.94,6,29.73,18.01,38.38,12,8.65,26.84,12.97,44.5,12.97,16.24,0,30.1-3.42,41.58-10.27,11.47-6.84,19.69-17.47,24.64-31.89l-10.09,4.32h-9.03c-18.41,0-33.62-4.57-45.66-13.71-12.04-9.14-18.05-22.5-18.05-40.07,0-8.96,2.64-17.75,7.91-26.35,7.39-11.47,18.28-19.35,32.71-23.66l16.88,14.05c-5.28,4.69-9.32,10.19-12.13,16.49-2.82,6.31-4.22,12.7-4.22,19.19,0,24.51,7.56,36.76,22.69,36.76,5.27,0,9.67-1.26,13.19-3.78,4.22-2.16,7.2-6.3,8.97-12.43,0-4.68-.18-9.1-.53-13.24-.35-4.14-1.24-8.73-2.64-13.78,3.17-1.08,7.91-5.95,14.24-14.59,7.03-8.29,12.13-12.43,15.3-12.43,1.76,0,3.69,1.27,5.8,3.78l5.8,8.65c3.87,12.62,5.8,25.41,5.8,38.38,0,26.67-9.68,48.47-29.01,65.41-19.35,16.94-47.48,25.41-84.41,25.41-39.75,0-69.29-9.19-88.63-27.57-14.77-14.05-22.16-30.45-22.16-49.19l.53-8.65c-13.72-8.29-23.92-18.56-30.6-30.81-6.69-12.25-10.02-25.76-10.02-40.54,0-30.99,13.72-58.19,41.15-81.62,30.24-24.87,70.34-37.3,120.28-37.3,56.27,0,99.71,15.5,130.31,46.49,26.02,25.95,39.04,56.94,39.04,92.97,0,15.86-4.14,33.16-12.4,51.89-8.27,18.74-18.03,34.24-29.28,46.49,4.57,3.97,15.21,11.27,31.92,21.89,16.7,10.63,28.4,15.95,35.08,15.95Z"/>
      <path class="cls-1" d="M1470.77,1177.07l-16.49,15.89-90.12-35.21-2.59,2.69v6.99c0,6.1-7.04,11.49-21.1,16.16-14.07,4.65-30.78,6.99-50.12,6.99-22.5,0-40.97-2.7-55.39-8.11-18.28-6.49-27.43-17.3-27.43-32.43,0-5.4,2.82-10.9,8.44-16.49,5.63-5.59,11.43-11.27,17.41-17.03v-16.22h47.48v16.76c-6.68,5.76-12.66,11.35-17.94,16.76-5.28,5.41-7.91,10.99-7.91,16.76,0,7.92,3.76,13.96,11.26,18.11,7.51,4.14,15.45,6.22,23.82,6.22,11.18,0,19.98-2.26,26.44-6.76,6.46-4.51,9.69-9.82,9.69-15.95v-7.03l-2.11-4.32,16.88-17.84,129.78,54.05Z"/>
      <path class="cls-1" d="M1712.56,1093.4h-44.84v-110.27c-24.98,23.43-53.81,46.31-86.52,68.65-41.5,27.75-71.22,41.62-89.16,41.62-5.98,0-13.72-3.07-23.21-9.19-2.82-2.16-6.68-5.04-11.61-8.65-4.93-3.6-9.5-7.2-13.72-10.81v-8.11c14.77,0,33.05-3.96,54.87-11.89,15.83-6.12,28.75-11.53,38.78-16.22,10.02-4.68,19.26-9.37,27.7-14.05-25.32,0-47.04-2.25-65.15-6.76-18.12-4.5-33.85-11.62-47.22-21.35-22.51-16.93-33.76-38.38-33.76-64.32s13.19-51.17,39.57-72.43c26.38-21.26,60.14-31.89,101.29-31.89,13.72,0,25.32.54,34.82,1.62,9.5,1.08,18.64,3.24,27.43,6.49,16.17,4.69,31.47,12.62,45.9,23.78v-31.89h44.84v275.68ZM1667.72,949.07v-41.08c-10.55-11.17-24.53-19.73-41.94-25.68-17.41-5.95-40.01-8.92-67.79-8.92s-52.67,5.5-72.54,16.49c-19.87,11-29.81,25.32-29.81,42.97s10.46,32.16,31.39,44.59c20.92,12.43,47.03,18.65,78.34,18.65,8.44,0,17.05-.9,25.85-2.7,8.79-1.8,17.76-4.32,26.91-7.57,20.75-8.29,37.27-20.54,49.59-36.76Z"/>
      <path class="cls-1" d="M1693.03,774.07l-17.41,11.44c-14.06-14.63-31.3-25.61-51.7-32.93-9.84-3.65-20.92-6.58-33.24-8.77-12.31-2.2-25.32-3.29-39.04-3.29-27.08,0-50.99,3.67-71.75,10.98-20.75,7.31-38.33,18.66-52.76,34.02l-17.41-11.44c8.09-19.59,22.51-37.02,43.26-52.26,28.49-19.97,61.55-29.95,99.18-29.95s68.23,9.44,96.01,28.31c22.87,15.61,37.81,33.58,44.84,53.9Z"/>
    </g>
  </g>
</svg>