<?xml version="1.0" encoding="UTF-8"?>
<svg version="1.1" xmlns="http://www.w3.org/2000/svg" width="3460" height="2630">
<path d="M0 0 C2.09091247 -0.00299728 4.18182439 -0.00640111 6.2727356 -0.01017761 C11.91969146 -0.01896387 17.56663215 -0.02135345 23.2135942 -0.0219934 C26.7507739 -0.02270696 30.2879498 -0.02484705 33.82512856 -0.02749062 C46.19120145 -0.03672627 58.55726361 -0.04082774 70.92333984 -0.04003906 C82.40841738 -0.03943876 93.89344787 -0.04998597 105.37851351 -0.06578273 C115.27451871 -0.07890364 125.17050861 -0.08422105 135.06652242 -0.08358365 C140.96122191 -0.08333 146.85587955 -0.08610723 152.7505703 -0.0967617 C158.30009014 -0.10651965 163.84952877 -0.10646969 169.39905167 -0.09924507 C171.42171283 -0.09820873 173.44437925 -0.10050472 175.46703148 -0.10660553 C199.82590082 -0.17524868 227.23841335 0.0418776 245.88598633 17.84448242 C264.19443897 37.10105136 262.23832052 71.8222531 262.19374084 96.58043861 C262.19417795 98.40955239 262.19505553 100.2386661 262.19632947 102.06777948 C262.19855503 107.07660202 262.19457349 112.08540298 262.18955116 117.09422279 C262.18519831 122.55024899 262.18670377 128.00627415 262.18746281 133.46230161 C262.18799503 143.01917448 262.18483066 152.57604052 262.17923355 162.13291168 C262.17093373 176.34469554 262.16841122 190.55647633 262.16710922 204.76826235 C262.1649318 227.94788814 262.15849653 251.12751095 262.14950487 274.30713501 C262.14003157 298.73033411 262.13296022 323.15353192 262.12942505 347.57673264 C262.12931789 348.31322098 262.12921074 349.04970933 262.12910033 349.80851551 C262.1279092 358.03836849 262.12679727 366.26822147 262.12571776 374.49807446 C262.12371838 389.71914672 262.12138612 404.94021892 262.11897278 420.16129112 C262.11879236 421.30359351 262.11879236 421.30359351 262.11860829 422.46897272 C262.11286913 458.70089373 262.10409682 494.93281386 262.09462233 531.16473406 C262.09399398 533.56823682 262.09336716 535.97173958 262.09274067 538.37524234 C262.0862372 563.31266985 262.0795516 588.25009731 262.0728353 613.18752477 C262.06634026 637.30454892 262.05989517 661.42157309 262.05360533 685.53859731 C262.05297868 687.9400434 262.05235051 690.34148949 262.05172218 692.74293558 C262.04226419 728.93144928 262.03371506 765.1199629 262.02799988 801.3084774 C262.02787922 802.06953165 262.02775857 802.83058589 262.02763426 803.61470239 C262.02522758 818.82203197 262.0229532 834.02936157 262.02095911 849.23669121 C262.01987962 857.46142752 262.01874389 865.68616382 262.01754761 873.91090012 C262.01744114 874.64668066 262.01733467 875.3824612 262.01722498 876.14053813 C262.01365701 900.54693943 262.00608943 924.95333776 261.9966155 949.35973742 C261.98740323 973.14363486 261.98167427 996.927531 261.97949815 1020.71143015 C261.97808465 1034.83764692 261.97383848 1048.96385633 261.96555199 1063.09007077 C261.96028559 1072.53248096 261.95866869 1081.97488727 261.95997868 1091.41729882 C261.96061806 1096.7928895 261.95969374 1102.1684669 261.95428193 1107.54405518 C261.94937591 1112.44615852 261.94919434 1117.34823971 261.95258768 1122.25034412 C261.95300468 1124.00130371 261.95178367 1125.75226478 261.94860308 1127.50322153 C261.93278444 1136.75062899 262.08573102 1145.97297412 262.50287724 1155.21184003 C262.53955276 1156.05461081 262.57622828 1156.89738159 262.61401519 1157.76569087 C263.74408465 1180.49711144 269.47307559 1201.54924726 278.41845703 1222.38378906 C279.07348633 1224.14526367 279.07348633 1224.14526367 279.07348633 1226.14526367 C284.05730958 1222.94025784 288.67721971 1219.38048337 293.32348633 1215.70776367 C301.66018044 1209.17204874 310.17542058 1202.92859112 318.79711914 1196.77612305 C321.13377082 1195.10207401 323.46034832 1193.41484718 325.78442383 1191.72338867 C334.09894857 1185.67472993 342.4732778 1179.78381099 351.07348633 1174.14526367 C352.75684981 1173.01303699 354.44017096 1171.88074651 356.12255859 1170.74707031 C427.86693235 1122.54336954 505.20827432 1084.01864159 760.07348633 1024.14526367 C761.33644531 1024.04068848 762.5994043 1023.93611328 763.90063477 1023.82836914 C779.09412838 1022.74753904 794.34902296 1022.89934821 809.57348633 1022.89526367 C810.32816067 1022.89482182 811.08283501 1022.89437996 811.86037827 1022.89392471 C836.70746801 1022.88630843 861.35272272 1023.44564932 886.07348633 1026.14526367 C886.86579651 1026.23012024 887.65810669 1026.31497681 888.47442627 1026.40240479 C969.73958054 1035.15284903 1049.45128617 1056.46785031 1231.26000977 1140.4753418 C1233.85998435 1142.01854087 1236.46876412 1143.5453346 1239.08129883 1145.06713867 C1263.4777825 1159.36920683 1287.22437422 1175.41572319 1309.46557617 1192.88452148 C1311.14896134 1194.20444269 1312.83926086 1195.51513484 1314.53051758 1196.82495117 C1320.93910838 1201.80400134 1327.22956842 1206.89363193 1333.39648438 1212.16943359 C1336.67810536 1214.97633901 1340.00851792 1217.70337094 1343.38598633 1220.39526367 C1350.25162759 1225.98543022 1356.60514549 1232.11652067 1363.02270508 1238.20776367 C1365.64263689 1240.68297545 1368.28687621 1243.13124244 1370.93188477 1245.57958984 C1380.16296406 1254.13513713 1389.33026806 1262.75915989 1397.49926758 1272.35229492 C1399.12115823 1274.19955996 1400.82008838 1275.92283081 1402.57348633 1277.64526367 C1406.28561992 1281.30822993 1409.68029514 1285.18760968 1413.07348633 1289.14526367 C1413.98064172 1290.18857747 1414.88822714 1291.23151746 1415.79614258 1292.27416992 C1421.83338133 1299.23190675 1427.65239676 1306.31766117 1433.30004883 1313.59448242 C1435.64383725 1316.61113275 1438.04028184 1319.58128603 1440.44995117 1322.54541016 C1462.04532254 1349.203626 1480.96552953 1378.4419827 1498.07348633 1408.14526367 C1498.92982666 1409.62687988 1498.92982666 1409.62687988 1499.8034668 1411.13842773 C1539.57176212 1480.24325615 1569.34369042 1555.11690177 1613.07348633 1734.14526367 C1613.22601868 1734.94262939 1613.37855103 1735.73999512 1613.53570557 1736.56152344 C1615.09815142 1744.74710346 1616.62464713 1752.93870865 1618.07348633 1761.14526367 C1651.49242918 1728.75394881 1660.79390456 1684.39474966 1669.81274414 1640.55151367 C1673.58294326 1622.39344904 1679.14638688 1605.0123676 1685.0090332 1587.44703674 C1686.94366335 1581.61866596 1688.66536149 1575.74545227 1690.32348633 1569.83276367 C1694.68225561 1554.72481253 1701.95873663 1538.35704891 1716.07348633 1530.14526367 C1728.10923809 1524.42944334 1740.97092725 1521.31891206 1754.01098633 1525.77026367 C1772.37579214 1533.63303981 1782.56757821 1550.23042123 1793.14379883 1566.28588867 C1797.72897862 1573.08012269 1802.81881071 1579.51511507 1807.81567383 1586.00854492 C1815.43491569 1595.92815909 1822.88495173 1605.89399354 1829.83520508 1616.29516602 C1831.0513692 1618.1122188 1832.27970616 1619.92046055 1833.51098633 1621.72729492 C1888.8415251 1703.30209406 1923.65870118 1795.95981957 1931.76351929 1904.2878418 C1933.27495377 1924.79369653 1935.09726775 1944.94750519 1939.07348633 1965.14526367 C1939.30874023 1966.35166504 1939.54399414 1967.55806641 1939.78637695 1968.80102539 C1944.07965627 1990.16830274 1950.74198652 2010.65866615 1958.07348633 2031.14526367 C1958.43555176 2032.1579834 1958.79761719 2033.17070313 1959.1706543 2034.21411133 C1979.18698483 2089.13957293 2013.10261675 2139.03966147 2052.68920898 2181.64331055 C2054.09511438 2183.1687303 2055.48238066 2184.70940161 2056.86645508 2186.25463867 C2064.80141289 2195.06630531 2073.32969394 2203.14295246 2082.07348633 2211.14526367 C2083.01579102 2212.0140918 2083.9580957 2212.88291992 2084.92895508 2213.77807617 C2090.79513527 2219.13131533 2096.88897951 2224.16573819 2103.07348633 2229.14526367 C2104.21840606 2230.0822892 2105.3629189 2231.01981205 2106.50708008 2231.95776367 C2115.72615727 2239.47478126 2125.26957419 2246.41333846 2135.07348633 2253.14526367 C2135.67032227 2253.55953613 2136.2671582 2253.97380859 2136.88208008 2254.40063477 C2230.7147927 2319.42925788 2343.286729 2349.30592444 2516.44848633 2334.45776367 C2546.73996692 2328.89133029 2576.10703283 2320.55615757 2605.07348633 2310.14526367 C2606.31533691 2309.69957031 2607.5571875 2309.25387695 2608.83666992 2308.79467773 C2637.25202914 2298.43844233 2664.33210809 2284.98647742 2690.07348633 2269.14526367 C2690.92040039 2268.63012207 2691.76731445 2268.11498047 2692.63989258 2267.58422852 C2718.30809982 2251.94329237 2741.92478425 2233.4288119 2764.07348633 2213.14526367 C2764.58411621 2212.67975098 2765.09474609 2212.21423828 2765.62084961 2211.73461914 C2774.53048761 2203.60824602 2783.35539264 2195.45886503 2791.21020508 2186.28588867 C2793.3623541 2183.81339881 2795.59329352 2181.4225501 2797.82348633 2179.02026367 C2803.11922727 2173.21099633 2807.95471856 2167.10014002 2812.74291992 2160.86987305 C2813.98441593 2159.26071198 2815.24127287 2157.6634347 2816.49926758 2156.06713867 C2828.92062499 2140.21008666 2840.03095496 2123.60056615 2850.07348633 2106.14526367 C2850.49549316 2105.41694336 2850.9175 2104.68862305 2851.35229492 2103.93823242 C2870.92790431 2070.01234463 2885.40821266 2034.43345723 2897.07348633 1997.14526367 C2897.43313477 1995.99574219 2897.7927832 1994.8462207 2898.16333008 1993.66186523 C2924.40441527 1908.27295246 2925.54034565 1814.95754256 2859.36450195 1603.91577148 C2852.5264904 1591.28411367 2845.14515787 1579.02513593 2837.07348633 1567.14526367 C2836.54142578 1566.36086914 2836.00936523 1565.57647461 2835.46118164 1564.76831055 C2823.364777 1547.02505573 2810.36703661 1530.17065051 2796.07348633 1514.14526367 C2794.82631836 1512.72987305 2794.82631836 1512.72987305 2793.55395508 1511.28588867 C2787.38947889 1504.41274042 2780.90135158 1497.87180067 2774.38598633 1491.33276367 C2773.49459961 1490.4367041 2772.60321289 1489.54064453 2771.68481445 1488.61743164 C2766.64123224 1483.58605467 2761.49687247 1478.76324821 2756.07348633 1474.14526367 C2755.10926758 1473.29963867 2754.14504883 1472.45401367 2753.15161133 1471.58276367 C2710.78727365 1435.06985385 2661.8493251 1408.3357784 2609.84301758 1388.36401367 C2586.90300872 1379.53164589 2566.00024895 1370.08519419 2547.07348633 1354.14526367 C2546.26266602 1353.48139648 2545.4518457 1352.8175293 2544.61645508 1352.13354492 C2515.2592467 1327.12212802 2506.06884281 1289.13553813 2502.94848633 1252.27026367 C2501.12395729 1227.80610362 2500.88477692 1203.29624078 2500.88818359 1178.77661133 C2500.8882655 1175.67466485 2500.8811944 1172.57286405 2500.86767578 1169.47094727 C2500.56696161 1099.26880304 2500.56696161 1099.26880304 2518.28833008 1080.60229492 C2533.04149621 1068.56087048 2552.69522987 1069.71805364 2570.64477539 1071.49975586 C2592.41250754 1074.27566859 2613.82911022 1079.77385678 2635.07348633 1085.14526367 C2635.97270813 1085.37189697 2636.87192993 1085.59853027 2637.79840088 1085.83203125 C2674.54783419 1095.11239496 2710.3604638 1105.79943334 2745.07348633 1121.14526367 C2746.22187988 1121.65138184 2747.37027344 1122.1575 2748.5534668 1122.67895508 C2776.11499105 1134.92465963 2802.45701645 1149.24345975 2828.07348633 1165.14526367 C2829.01095703 1165.7248584 2829.94842773 1166.30445313 2830.91430664 1166.90161133 C2845.31002287 1175.8315878 2859.24772237 1185.36062584 2873.07348633 1195.14526367 C2873.7534668 1195.62447266 2874.43344727 1196.10368164 2875.1340332 1196.59741211 C2879.13505916 1199.41777245 2883.11304034 1202.26821592 2887.07348633 1205.14526367 C2887.77860352 1205.65734375 2888.4837207 1206.16942383 2889.21020508 1206.69702148 C2899.50060176 1214.18769649 2909.63737833 1221.84938296 2919.65551758 1229.69995117 C2923.31709224 1232.56609425 2927.01228446 1235.38472855 2930.71972656 1238.19116211 C2941.06513569 1246.03096048 2951.20277109 1254.00297357 2960.26489258 1263.32885742 C2962.67555703 1265.74993511 2965.23868282 1267.95812573 2967.83520508 1270.17651367 C2969.99700076 1272.07798841 2972.07036221 1274.05571959 2974.1484375 1276.04760742 C2993.8922258 1294.7641873 3018.69833289 1305.32827842 3046.07348633 1305.14526367 C3050.52358495 1274.87446213 3054.61650024 1244.6488395 3057.07348633 1214.14526367 C3057.16276398 1213.06507965 3057.16276398 1213.06507965 3057.25384521 1211.96307373 C3064.01814484 1129.800831 3066.92629267 1004.76087928 3011.39282227 937.70043945 C2981.93532294 902.97722133 2939.87222471 899.06997644 2897.44848633 894.02026367 C2896.3756842 893.89193146 2895.30288208 893.76359924 2894.1975708 893.63137817 C2882.7041761 892.26416151 2871.2087314 891.00532086 2859.67504883 890.02807617 C2858.78755951 889.95209198 2857.90007019 889.87610779 2856.98568726 889.79782104 C2854.01622855 889.55743709 2851.04562432 889.35008115 2848.07348633 889.14526367 C2846.90314885 889.06084471 2845.73281138 888.97642575 2844.52700913 888.88944864 C2828.70395346 887.85289714 2812.85513049 887.99327237 2797.00657723 887.99425963 C2792.63206029 887.99342302 2788.25755122 887.98680669 2783.88303864 887.98094893 C2776.23042021 887.97147809 2768.57780575 887.96560525 2760.92518234 887.96214104 C2749.54354839 887.95696571 2738.16192475 887.94610094 2726.78029623 887.9340616 C2707.61813963 887.91393253 2688.45598186 887.89822037 2669.29381943 887.88490295 C2643.08709522 887.86663072 2616.88037983 887.84192207 2590.67366268 887.81552905 C2578.44425194 887.80322161 2566.21484089 887.79122891 2553.98542976 887.77931976 C2552.1490557 887.77753098 2552.1490557 887.77753098 2550.27558317 887.77570606 C2521.15043954 887.74740947 2492.02529336 887.72220577 2462.90014648 887.69750977 C2461.6263638 887.69642857 2460.35258112 887.69534737 2459.04019896 887.69423341 C2440.96824665 887.67889721 2422.89629422 887.66369431 2404.82434177 887.64851892 C2382.93554741 887.63013499 2361.04675313 887.61166378 2339.15795898 887.59301758 C2337.88944 887.59193811 2336.62092102 887.59085865 2335.31396206 887.58974647 C2306.29775226 887.56503824 2277.28154358 887.53945349 2248.26533699 887.51120758 C2246.43069603 887.5094222 2246.43069603 887.5094222 2244.55899161 887.50760076 C2232.33983634 887.49569043 2220.12068123 887.48363158 2207.90152633 887.47135055 C2181.74624522 887.44509658 2155.59096552 887.42143214 2129.43567752 887.40317716 C2110.34320884 887.38981191 2091.25074549 887.3731167 2072.15828262 887.35308206 C2061.83942255 887.34235793 2051.52056681 887.33315375 2041.20170212 887.32838631 C1969.41147061 887.29379203 1969.41147061 887.29379203 1940.33401489 886.6842041 C1939.37140778 886.66408282 1938.40880067 886.64396154 1937.41702364 886.62323052 C1845.76560649 884.62688705 1845.76560649 884.62688705 1821.17895508 860.41088867 C1820.48415039 859.66323242 1819.7893457 858.91557617 1819.07348633 858.14526367 C1818.43024414 857.45948242 1817.78700195 856.77370117 1817.12426758 856.06713867 C1788.67983048 822.74827526 1800.12796762 758.5934023 1803.21801758 718.83666992 C1803.63897938 713.56368354 1804.07271319 708.29183662 1804.51098633 703.02026367 C1804.61413147 701.76122223 1804.71727661 700.50218079 1804.82354736 699.20498657 C1809.73893984 639.83727813 1809.73893984 639.83727813 1830.07348633 621.14526367 C1846.06635155 609.28452631 1866.28555864 606.96003151 1885.65536499 607.02938271 C1886.68835358 607.02900225 1887.72134217 607.02862179 1888.78563344 607.02822981 C1892.28052983 607.02817898 1895.77537489 607.03534402 1899.27026367 607.04238892 C1901.85241297 607.04383525 1904.43456255 607.04482796 1907.01671219 607.04541564 C1912.74740069 607.04743109 1918.47807629 607.05320892 1924.20875931 607.06128192 C1933.0282399 607.07364208 1941.84771825 607.07991686 1950.66720568 607.08500473 C1965.55304431 607.09368837 1980.43887763 607.10602785 1995.32471193 607.12021246 C2022.95885726 607.14641547 2050.59300398 607.16020695 2078.2271585 607.17253127 C2090.03790861 607.17783481 2101.8486586 607.18342225 2113.65940857 607.1890316 C2114.66221685 607.18950683 2114.66221685 607.18950683 2115.68528388 607.18999165 C2149.32811413 607.20594833 2182.97094195 607.22565315 2216.61376953 607.24642944 C2217.35880023 607.24688927 2218.10383092 607.2473491 2218.8714383 607.24782286 C2268.47158543 607.27845437 2318.07173063 607.31179675 2367.671875 607.34658813 C2368.88323851 607.34743776 2368.88323851 607.34743776 2370.119074 607.34830455 C2406.67243394 607.37395204 2443.22579344 607.40016979 2479.77915239 607.42718336 C2495.01771199 607.43844397 2510.25627164 607.44963374 2525.49483132 607.4607808 C2528.04537702 607.462647 2530.59592272 607.46451538 2533.14646842 607.46638383 C2587.20572537 607.50595807 2641.26498385 607.53905286 2695.32424717 607.56854478 C2735.03733406 607.59021261 2774.75041912 607.61289927 2814.46350098 607.64252663 C2815.68867387 607.64343992 2815.68867387 607.64343992 2816.93859774 607.64437167 C2834.86612873 607.65775484 2852.79365926 607.67167906 2870.72118944 607.68611423 C2877.93056098 607.69191016 2885.13993258 607.69763097 2892.3493042 607.70332718 C2893.53233882 607.70426477 2893.53233882 607.70426477 2894.73927313 607.70522129 C2920.03742309 607.72523445 2945.33557167 607.73906704 2970.63372722 607.74958183 C2996.0439993 607.760173 3021.45425921 607.77697328 3046.86452109 607.802314 C3050.38054974 607.80581905 3053.89657844 607.80925406 3057.41260719 607.81264687 C3058.10168634 607.81331437 3058.79076548 607.81398188 3059.50072581 607.81466961 C3071.01925823 607.82563532 3082.53778021 607.8288026 3094.05631746 607.82983051 C3104.10185079 607.83127393 3114.14736139 607.839969 3124.19288437 607.8544196 C3129.90402928 607.86243248 3135.61512962 607.86743673 3141.32627988 607.86354248 C3200.0947944 607.82885278 3200.0947944 607.82885278 3225.38598633 612.33276367 C3226.61397949 612.54562012 3227.84197266 612.75847656 3229.10717773 612.9777832 C3246.80394139 616.19849805 3263.93759547 621.13966048 3280.07348633 629.14526367 C3280.70013184 629.45044922 3281.32677734 629.75563477 3281.97241211 630.07006836 C3317.21665332 647.39153145 3341.95283974 677.59515054 3355.01098633 714.46166992 C3367.24822179 750.72614682 3370.27874279 787.86602226 3370.66616212 825.89551843 C3370.69018141 828.16781509 3370.71741791 830.44005219 3370.7456539 832.71230018 C3371.14902411 865.2182452 3371.22241539 897.72396403 3371.21485458 930.23203097 C3371.21310038 938.6661529 3371.21737811 947.10026999 3371.22162063 955.53439067 C3371.22937405 971.27891317 3371.23257646 987.02343341 3371.23306656 1002.76795769 C3371.23357337 1018.66741228 3371.23626446 1034.56686436 3371.24147415 1050.46631813 C3371.24180429 1051.47962967 3371.24213442 1052.49294121 3371.24247456 1053.53695916 C3371.2438249 1057.6655495 3371.24518761 1061.79413983 3371.24656666 1065.92273016 C3371.26274694 1114.44962286 3371.26923704 1162.97651505 3371.27401453 1211.50340999 C3371.27640738 1235.67578215 3371.28011238 1259.84815404 3371.28405163 1284.020526 C3371.29669759 1361.66947597 3371.30748911 1439.31842593 3371.31089209 1516.96737691 C3371.31105432 1520.66652998 3371.31121988 1524.36568306 3371.31138647 1528.06483613 C3371.31172024 1535.48249593 3371.31205072 1542.90015574 3371.31238103 1550.31781554 C3371.31276791 1559.00054133 3371.31315752 1567.68326712 3371.31355209 1576.3659929 C3371.31366451 1578.85096973 3371.31377593 1581.33594655 3371.31388635 1583.82092338 C3371.3174427 1663.78587981 3371.33256024 1743.75082729 3371.35582409 1823.71578031 C3371.37256545 1881.28406756 3371.38803921 1938.85235313 3371.39255905 1996.42064285 C3371.39269928 1998.19589856 3371.39269928 1998.19589856 3371.39284234 2000.00701803 C3371.39486114 2025.98434442 3371.39601739 2051.96167079 3371.39637093 2077.93899726 C3371.39650709 2087.2323435 3371.39671608 2096.52568975 3371.39696418 2105.81903599 C3371.39702574 2108.13074507 3371.39708406 2110.44245415 3371.39713913 2112.75416324 C3371.3980584 2149.56697874 3371.40801866 2186.37978485 3371.42259662 2223.19259727 C3371.43720546 2260.23067496 3371.44225815 2297.26874115 3371.43417707 2334.30682122 C3371.43306173 2339.42356894 3371.43205106 2344.54031668 3371.43110275 2349.65706444 C3371.43091278 2350.66004427 3371.43072282 2351.6630241 3371.43052709 2352.69639726 C3371.42779394 2368.57450824 3371.43513371 2384.45259792 3371.44667612 2400.33070427 C3371.45781592 2415.94323136 3371.45824918 2431.55572835 3371.44730594 2447.16825591 C3371.4412125 2456.31875664 3371.44329634 2465.46916647 3371.45755791 2474.61965862 C3371.46621403 2480.7014143 3371.46392609 2486.78310329 3371.4528592 2492.86485488 C3371.44689475 2496.30897458 3371.445449 2499.75291646 3371.45754406 2503.19702413 C3371.59476871 2551.81203793 3371.59476871 2551.81203793 3355.07348633 2569.14526367 C3354.49083008 2569.76788086 3353.90817383 2570.39049805 3353.30786133 2571.03198242 C3339.16960465 2584.72470581 3319.68135559 2585.60266578 3301.17402267 2585.40132332 C3298.01248425 2585.36700329 3294.85130642 2585.3517472 3291.68960571 2585.34068298 C3286.07773127 2585.31801503 3280.46611047 2585.27910002 3274.85437012 2585.23468018 C3264.89363686 2585.15596107 3254.93289856 2585.09330485 3244.97192383 2585.05541992 C3243.89463202 2585.05098814 3242.8173402 2585.04655636 3241.70740318 2585.04199028 C3225.73926279 2584.99084799 3209.89390147 2585.50692565 3193.96272945 2586.54131508 C3193.27837102 2586.58568892 3192.59401258 2586.63006275 3191.88891602 2586.67578125 C3190.88654451 2586.74095979 3190.88654451 2586.74095979 3189.86392307 2586.80745506 C3180.40463597 2587.40227353 3170.94147663 2587.48208918 3161.46630859 2587.4609375 C3158.44505224 2587.45769286 3155.42470767 2587.48177105 3152.40356445 2587.5065918 C3125.1944012 2587.59435402 3095.01005655 2583.17482072 3074.07348633 2564.14526367 C3073.30520508 2563.46850586 3072.53692383 2562.79174805 3071.74536133 2562.09448242 C3059.82429646 2550.98262891 3053.92166555 2535.08450832 3052.86694336 2518.99438477 C3052.76747257 2515.52115335 3052.74614144 2512.05739524 3052.76098633 2508.58276367 C3052.76227539 2507.29208984 3052.76356445 2506.00141602 3052.76489258 2504.67163086 C3052.8331676 2494.6885561 3053.6004713 2484.82596762 3054.57348633 2474.89526367 C3059.17326001 2438.37834867 3059.17326001 2438.37834867 3047.36010742 2404.96191406 C3045.42059626 2402.818801 3043.42781188 2400.75347472 3041.38598633 2398.70776367 C3040.0261991 2397.31490397 3038.66804098 2395.92045138 3037.31176758 2394.52416992 C3036.41518433 2393.62033569 3036.41518433 2393.62033569 3035.50048828 2392.69824219 C3034.07348633 2391.14526367 3034.07348633 2391.14526367 3033.07348633 2389.14526367 C3028.01061434 2390.70307044 3024.55265884 2393.797122 3020.57348633 2397.14526367 C3019.13447348 2398.33538653 3017.69435651 2399.52417555 3016.25317383 2400.71166992 C3015.54257813 2401.29835449 3014.83198242 2401.88503906 3014.09985352 2402.48950195 C3010.31034862 2405.58593836 3006.41383085 2408.53723648 3002.52270508 2411.50463867 C2999.25266315 2413.99956664 2996.01241459 2416.53161516 2992.77246094 2419.06542969 C2973.15734586 2434.39456906 2953.11667809 2449.17853046 2932.94848633 2463.77026367 C2932.30572754 2464.23577637 2931.66296875 2464.70128906 2931.00073242 2465.1809082 C2928.6967183 2466.84288465 2926.38614292 2468.49532735 2924.07348633 2470.14526367 C2923.49246155 2470.56014038 2922.91143677 2470.97501709 2922.31280518 2471.40246582 C2911.40366964 2479.18109438 2900.35881134 2486.73225849 2889.19848633 2494.14526367 C2888.01610886 2494.93163208 2888.01610886 2494.93163208 2886.80984497 2495.73388672 C2811.88379977 2545.54501939 2731.27619083 2587.62770488 2495.42504883 2630.31323242 C2493.44102965 2630.31646266 2491.45701068 2630.31982789 2489.47299194 2630.32331848 C2485.31947279 2630.32927313 2481.16597429 2630.33116281 2477.01245117 2630.33056641 C2472.84964562 2630.33048611 2468.68695238 2630.33727759 2464.52416992 2630.35107422 C2428.24764345 2630.46931307 2392.1007034 2629.49621893 2355.94848633 2626.33276367 C2354.96707672 2626.24878326 2353.98566711 2626.16480286 2352.97451782 2626.07827759 C2304.12612033 2621.87471206 2255.78369996 2614.47353554 2208.07348633 2603.14526367 C2207.36188354 2602.97681946 2206.65028076 2602.80837524 2205.91711426 2602.63482666 C2113.3522967 2580.64394392 2026.31824917 2540.01488678 1936.07348633 2472.14526367 C1935.1324707 2471.38729492 1934.19145508 2470.62932617 1933.22192383 2469.84838867 C1923.38612827 2461.8550332 1913.69509899 2453.69799547 1904.31567383 2445.17260742 C1902.36140208 2443.40559168 1900.38288895 2441.67612838 1898.38598633 2439.95776367 C1886.84417531 2429.87298233 1875.89832075 2419.1348746 1865.08178711 2408.28393555 C1863.05022433 2406.24693946 1861.01326797 2404.21544416 1858.97583008 2402.18432617 C1857.65389426 2400.8617305 1856.33226816 2399.53882518 1855.01098633 2398.21557617 C1854.41608398 2397.62269806 1853.82118164 2397.02981995 1853.20825195 2396.41897583 C1849.52813849 2392.71857144 1846.03941635 2388.89437987 1842.63168335 2384.9415741 C1840.38103181 2382.34699281 1838.03957058 2379.84608985 1835.69848633 2377.33276367 C1831.40473253 2372.68487825 1827.33816793 2367.9011002 1823.37036133 2362.96948242 C1821.34815695 2360.48299642 1819.28186754 2358.04240568 1817.19140625 2355.61328125 C1810.73630148 2348.09595863 1804.69447434 2340.29554398 1798.74731445 2332.37231445 C1797.65363946 2330.9171652 1796.55613948 2329.4648808 1795.4543457 2328.01586914 C1739.4536622 2254.35838005 1698.64316746 2169.35946675 1647.19848633 1954.45776367 C1647.04289246 1953.27860382 1647.04289246 1953.27860382 1646.88415527 1952.07562256 C1645.6702221 1942.77968265 1644.67666107 1933.50469554 1644.07348633 1924.14526367 C1623.27101104 1924.79126672 1623.27101104 1924.79126672 1605.07348633 1934.14526367 C1594.87207498 1945.79169523 1594.39161729 1960.69775509 1593.13720703 1975.46582031 C1588.99604034 2023.21008843 1574.42733397 2068.54856225 1555.07348633 2112.14526367 C1554.51111045 2113.41803306 1553.94877454 2114.69082011 1553.38647461 2115.96362305 C1508.03581779 2218.39404321 1508.03581779 2218.39404321 1471.38598633 2232.58276367 C1405.87520557 2252.96559616 1317.58953797 2209.36834732 1261.19702148 2179.82543945 C1243.36941836 2170.23582208 1223.12479269 2157.94786168 1216.67993164 2137.55664062 C1209.2228867 2107.90558069 1230.12571437 2076.98363774 1243.63598633 2052.08276367 C1282.47782972 1980.38167119 1302.07373667 1901.44056252 1305.07348633 1820.14526367 C1305.10958008 1819.16734863 1305.14567383 1818.18943359 1305.18286133 1817.18188477 C1308.06817845 1723.93204208 1279.96184251 1627.32441781 1188.95898438 1491.50195312 C1187.10468051 1489.35302277 1185.26990126 1487.19016607 1183.45361328 1485.0090332 C1176.3038175 1476.46754318 1168.70257548 1468.49246254 1160.7902832 1460.65625 C1158.80587519 1458.69031649 1156.82980493 1456.71627887 1154.85473633 1454.7409668 C1148.76509218 1448.66815554 1142.67264752 1442.66961392 1136.07348633 1437.14526367 C1135.06334527 1436.26884119 1134.05418471 1435.39128698 1133.04614258 1434.51245117 C1051.08974758 1364.32697465 948.04317927 1321.7769502 774.72924805 1315.16088867 C718.38122769 1319.9040143 663.79384517 1333.29289759 612.07348633 1356.14526367 C610.58993652 1356.79446777 610.58993652 1356.79446777 609.07641602 1357.45678711 C568.28592638 1375.38365077 530.08307777 1399.25985619 495.80883789 1427.71411133 C494.27188268 1428.9816453 492.71690467 1430.22725575 491.15942383 1431.46948242 C483.76386899 1437.37065524 476.91551401 1443.79114621 470.0480957 1450.28833008 C468.05312306 1452.16441341 466.04274555 1454.02242486 464.02661133 1455.87573242 C455.40741141 1463.79007754 455.40741141 1463.79007754 447.53442383 1472.43432617 C446.00980232 1474.21984548 444.38858269 1475.82884727 442.69848633 1477.45776367 C438.98860076 1481.10993991 435.76857809 1485.09368829 432.51098633 1489.14916992 C430.44556586 1491.68791592 428.32966757 1494.16901499 426.18188477 1496.63793945 C414.48878999 1510.15098752 404.52991307 1525.01050977 395.07348633 1540.14526367 C394.69804687 1540.74306641 394.32260742 1541.34086914 393.93579102 1541.95678711 C348.45853749 1614.76117952 323.90039131 1700.68419338 318.87036133 1800.35229492 C318.86334702 1801.66420807 318.8563327 1802.97612122 318.84910583 1804.32778931 C318.82971205 1808.53778574 318.82467189 1812.74772707 318.82348633 1816.95776367 C318.82282354 1818.03371229 318.82282354 1818.03371229 318.82214737 1819.13139725 C318.8152046 1840.62030943 319.14423151 1861.81590626 322.07348633 1883.14526367 C322.23977539 1884.44560547 322.40606445 1885.74594727 322.57739258 1887.08569336 C333.25266423 1970.37635698 363.60982324 2051.38159264 415.07348633 2118.14526367 C415.50661133 2118.70987305 415.93973633 2119.27448242 416.38598633 2119.85620117 C421.63108968 2126.68079587 426.9630878 2133.34069834 432.80786133 2139.66870117 C434.03396865 2141.00896331 435.25312101 2142.35648638 436.42993164 2143.74023438 C441.82080779 2150.06260997 447.66119132 2155.91907509 453.53295898 2161.79003906 C455.31110404 2163.57036619 457.08108194 2165.35854744 458.85083008 2167.1472168 C465.61927197 2173.9486467 472.5444754 2180.1856472 480.07348633 2186.14526367 C481.17560785 2187.0796973 482.27194021 2188.02106728 483.35864258 2188.97338867 C510.15966058 2212.34417793 541.46416151 2230.17370041 573.07348633 2246.14526367 C574.27110596 2246.75217041 574.27110596 2246.75217041 575.49291992 2247.37133789 C595.77599557 2257.55848983 617.10739942 2265.18234452 638.53277588 2272.55935669 C666.49159023 2282.18623143 693.63652015 2292.81195951 720.07348633 2306.14526367 C720.93216309 2306.57403809 721.79083984 2307.0028125 722.67553711 2307.44458008 C739.42359522 2315.84318562 755.36197248 2325.51595406 770.07348633 2337.14526367 C771.35932617 2338.14299805 771.35932617 2338.14299805 772.67114258 2339.16088867 C777.86756408 2343.24092287 782.81879844 2347.53629848 787.69848633 2351.98901367 C789.83735191 2353.93087847 792.00768018 2355.82503963 794.19848633 2357.70776367 C801.03520889 2363.67785943 807.25724765 2370.18374248 813.07348633 2377.14526367 C813.49082031 2377.64348633 813.9081543 2378.14170898 814.33813477 2378.6550293 C820.56554134 2386.13494883 826.32396831 2393.82139149 831.76098633 2401.89526367 C836.52926747 2408.96759617 841.42074316 2415.74010759 847.07348633 2422.14526367 C847.50951172 2422.64155273 847.94553711 2423.1378418 848.39477539 2423.64916992 C859.61922176 2436.34784865 871.90926712 2447.60019997 885.38842773 2457.85864258 C887.00443936 2459.09254308 888.60764143 2460.3431656 890.21020508 2461.59448242 C901.57993046 2470.45345289 913.34348599 2478.77355265 925.07348633 2487.14526367 C926.78201119 2488.36521081 928.4903892 2489.58536224 930.19848633 2490.8059082 C931.53137844 2491.75802358 932.86476368 2492.70944878 934.19848633 2493.66040039 C944.35949402 2500.91290783 954.3520487 2508.31214073 964.07348633 2516.14526367 C965.00290039 2516.89163086 965.93231445 2517.63799805 966.88989258 2518.40698242 C969.63514226 2520.63275254 972.35566959 2522.8861022 975.07348633 2525.14526367 C976.06993164 2525.95479492 977.06637695 2526.76432617 978.09301758 2527.59838867 C985.92605826 2534.05386602 993.19434608 2541.05267598 1000.38598633 2548.20776367 C1001.30484619 2549.11743896 1002.22370605 2550.02711426 1003.17041016 2550.96435547 C1011.58622851 2559.41816849 1019.04088713 2568.52025536 1026.07348633 2578.14526367 C1023.52152461 2580.69722539 1021.50599154 2581.05188383 1018.03051758 2582.02807617 C1017.09607819 2582.29093918 1017.09607819 2582.29093918 1016.14276123 2582.55911255 C1014.05979378 2583.13955578 1011.97354193 2583.70655395 1009.88598633 2584.27026367 C1008.79880814 2584.56555969 1008.79880814 2584.56555969 1007.68966675 2584.86682129 C958.16629437 2598.2354573 906.22496443 2606.20975882 854.88989258 2606.34838867 C853.27565992 2606.35540933 851.66142754 2606.36249616 850.04719543 2606.36964417 C844.91012173 2606.38906754 839.77309304 2606.39407908 834.63598633 2606.39526367 C833.76041328 2606.39570553 832.88484024 2606.39614738 831.98273468 2606.39660263 C806.36301057 2606.40338439 780.91891194 2606.15456567 755.42205811 2603.39526367 C752.94709827 2603.13180996 750.47089356 2602.88488324 747.99389648 2602.64135742 C717.52187487 2599.63033348 687.2775858 2595.14396548 657.07348633 2590.14526367 C656.15917847 2589.99402039 655.24487061 2589.8427771 654.30285645 2589.68695068 C591.92134406 2579.30824273 532.82266135 2560.35823666 476.49291992 2531.38598633 C473.50028924 2529.85131941 470.49916392 2528.3336469 467.49926758 2526.81323242 C451.69989965 2518.77728021 436.26865009 2510.28434927 421.07348633 2501.14526367 C419.96650391 2500.48268555 418.85952148 2499.82010742 417.71899414 2499.13745117 C394.30342715 2485.11649373 371.37043602 2470.40492706 348.68652344 2455.23291016 C337.28818395 2447.61041195 325.86124299 2440.03186236 314.41641235 2432.4793396 C312.45051378 2431.18168442 310.48515394 2429.8832127 308.52035522 2428.58389282 C305.75563456 2426.75582899 302.98904149 2424.93063404 300.22192383 2423.10620117 C299.40036301 2422.56234268 298.57880219 2422.01848419 297.73234558 2421.45814514 C293.26184543 2418.51602161 288.75167639 2415.74529827 284.07348633 2413.14526367 C268.48980755 2427.10564258 260.35476668 2445.65704529 258.92114258 2466.34350586 C258.48207 2476.23581106 259.25154933 2486.04216708 260.07348633 2495.89526367 C262.46078613 2524.7154879 263.77108674 2558.75613924 244.16333008 2582.45385742 C229.73287462 2597.63022111 210.2391632 2601.39975507 190.11064148 2602.03283691 C183.02593316 2602.2001915 175.96374723 2601.99652832 168.88374269 2601.75744534 C149.94740218 2601.12739011 131.01930311 2600.95243617 112.07400489 2600.87487221 C107.786119 2600.85616433 103.49826395 2600.83196065 99.21040344 2600.80822754 C87.47772221 2600.7441955 75.74500716 2600.68783003 64.01228333 2600.6322403 C53.19137775 2600.58096363 42.37048976 2600.52789062 31.54962951 2600.46771479 C27.31678705 2600.44437404 23.08395236 2600.42277494 18.85107994 2600.40562439 C-11.24537818 2600.2827993 -11.24537818 2600.2827993 -25.18115234 2599.70581055 C-26.07703977 2599.66973946 -26.97292719 2599.63366837 -27.89596272 2599.59650421 C-45.2995161 2598.7609341 -62.2782751 2593.41193179 -74.61401367 2580.58276367 C-87.66723469 2564.56710951 -88.39802647 2545.98252551 -88.60607719 2526.3094492 C-88.63887651 2524.1084595 -88.67234037 2521.90747962 -88.70640879 2519.70650921 C-89.08465152 2493.25504551 -89.06871203 2466.79928166 -89.05600448 2440.34566561 C-89.0524259 2432.47053723 -89.05493415 2424.59541292 -89.05745828 2416.72028453 C-89.06201317 2401.99025434 -89.0619303 2387.26022763 -89.0591774 2372.53019714 C-89.05640766 2357.61667371 -89.0558606 2342.70315256 -89.05791473 2327.78962898 C-89.05804391 2326.84079146 -89.05817308 2325.89195393 -89.05830617 2324.91436375 C-89.05883967 2321.04724446 -89.0593884 2317.18012516 -89.05995644 2313.31300587 C-89.06524317 2277.28917489 -89.06560228 2241.26534541 -89.06280899 2205.24151421 C-89.06008456 2170.07886167 -89.05906725 2134.91620984 -89.06032944 2099.75355721 C-89.06040693 2097.51925186 -89.06048408 2095.28494651 -89.06056091 2093.05064116 C-89.06087171 2084.05801583 -89.06119039 2075.0653905 -89.06152067 2066.07276517 C-89.0624383 2040.88628153 -89.06300857 2015.6997979 -89.06330681 1990.51331425 C-89.06332045 1989.36508934 -89.0633341 1988.21686444 -89.06334816 1987.03384484 C-89.06375814 1950.37888606 -89.06262957 1913.72392749 -89.06045723 1877.06896877 C-89.06038698 1875.87987779 -89.06031673 1874.69078682 -89.06024435 1873.46566278 C-89.05910058 1854.17927223 -89.0578805 1834.89288169 -89.05665418 1815.60649114 C-89.05205976 1743.27202688 -89.05168563 1670.93756429 -89.05643157 1598.60310003 C-89.05779445 1577.81353711 -89.05906757 1557.02397417 -89.06030655 1536.23441124 C-89.06037458 1535.09341414 -89.06044261 1533.95241704 -89.0605127 1532.77684426 C-89.06727203 1418.80475692 -89.06811213 1304.83266835 -88.62852895 471.29305249 C-88.62733261 470.24644593 -88.62613627 469.19983936 -88.62490368 468.12151744 C-88.61409501 458.67252062 -88.60325692 449.22352382 -88.5923342 439.77452712 C-88.55902359 410.9359912 -88.52961529 382.09745397 -88.50334116 353.25891081 C-88.47004907 316.72212588 -88.43035462 280.18535798 -88.37865236 243.6485941 C-88.37360976 240.06859247 -88.36859149 236.48859081 -88.36359072 232.90858912 C-88.36236035 232.03062593 -88.36112998 231.15266273 -88.35986232 230.24809459 C-88.34062401 216.40858268 -88.32773293 202.5690727 -88.31747304 188.72955154 C-88.3072459 175.14357503 -88.28983878 161.5576229 -88.2649067 147.97166526 C-88.25055808 140.0447422 -88.24140854 132.117857 -88.24033908 124.19092078 C-88.23892836 118.29232338 -88.2270829 112.39377504 -88.21140588 106.49519741 C-88.20670568 104.14457712 -88.20520274 101.79394737 -88.20752501 99.44332353 C-88.26380683 31.82751334 -88.26380683 31.82751334 -72.78198242 15.88354492 C-71.86352539 15.0230957 -71.86352539 15.0230957 -70.92651367 14.14526367 C-70.36577148 13.60256836 -69.8050293 13.05987305 -69.22729492 12.50073242 C-59.7678853 4.39559837 -45.91396108 2.27754823 -33.92651367 1.14526367 C-33.10824443 1.06318004 -32.28997519 0.9810964 -31.4469099 0.89652538 C-20.96651025 -0.04357842 -10.51444877 -0.00302497 0 0 Z " fill="#0C4674" transform="translate(88.926513671875,-0.145263671875)"/>
<path d="M0 0 C2.98897185 0.01025906 5.97793091 0.01692296 8.96691513 0.02240753 C23.8586715 0.04994652 38.75008384 0.11484364 53.64162827 0.19763947 C54.73858017 0.20361397 55.83553207 0.20958847 56.96572495 0.21574402 C72.25441709 0.29973899 87.54272851 0.41027863 102.83104706 0.54596329 C105.93428625 0.57246998 109.03753533 0.5959603 112.14080429 0.61869049 C117.0373834 0.65525828 121.93377759 0.70167808 126.83019638 0.75551414 C128.6158624 0.77382139 130.40156235 0.78913548 132.18728256 0.80103493 C155.97253844 0.9662561 178.41854707 2.98459865 196.82912827 19.63513947 C211.41014775 34.95795962 214.82157819 56.85050892 214.76209641 77.19562531 C214.76293368 78.28106495 214.76377095 79.36650459 214.7646336 80.48483634 C214.76615317 84.14660856 214.76040856 87.80833287 214.75466537 91.4701004 C214.75407634 94.15000487 214.75386884 96.82990711 214.75407982 99.5098114 C214.75361427 106.18387554 214.74741804 112.85792372 214.7394021 119.5319826 C214.73277912 125.15319799 214.72843675 130.77441142 214.7254734 136.39562988 C214.71140741 162.66298709 214.67946746 188.93030664 214.64162827 215.19763947 C214.64012193 216.25059031 214.6386156 217.30354115 214.63706362 218.3883996 C214.54930642 279.68485835 214.43396105 340.98125449 214.30226707 402.27763367 C214.29819508 404.17334807 214.29819508 404.17334807 214.29404082 406.10735974 C214.29132311 407.37245111 214.28860541 408.63754247 214.28580534 409.94096994 C214.28308554 411.20725192 214.28036575 412.47353389 214.27756353 413.77818805 C214.272062 416.33921968 214.26655675 418.9002513 214.26104777 421.46128291 C214.21675134 442.08740426 214.17609063 462.71353106 214.13697565 483.33966282 C214.09584194 505.00387979 214.05169573 526.66808906 214.00474972 548.33229423 C213.97886942 560.30281033 213.95403356 572.27332583 213.93255424 584.24385071 C213.83985093 635.43826104 213.61559082 686.62913209 213.15310287 737.8216629 C213.14241664 739.00640302 213.1317304 740.19114314 213.12072034 741.41178447 C212.77309268 779.77246407 212.36007569 818.13204592 211.7578392 856.48963165 C211.66092345 862.75494998 211.58056276 869.02034547 211.5053978 875.28595734 C210.31800044 972.13388789 185.59633831 1059.15347393 131.64162827 1154.19763947 C131.05317123 1155.1976297 130.4647142 1156.19761993 129.85842514 1157.2279129 C99.00512453 1209.54226331 99.00512453 1209.54226331 83.64162827 1225.19763947 C82.88494858 1225.97881134 82.12826889 1226.75998322 81.34865952 1227.56482697 C70.52361148 1238.05435149 58.74834614 1242.51013947 43.78469467 1242.51013947 C25.54066182 1242.18936526 9.10123215 1232.62970088 -5.35837173 1222.19763947 C-6.05301529 1221.69990021 -6.74765884 1221.20216095 -7.4633522 1220.68933868 C-18.14570649 1213.00848755 -28.50830499 1205.0054928 -38.63913345 1196.61267853 C-40.17008286 1195.35261282 -41.71817821 1194.11344477 -43.26852798 1192.87732697 C-50.09511553 1187.42812159 -56.44107093 1181.54051911 -62.78805923 1175.54920197 C-65.66280003 1172.83795354 -68.58540197 1170.19041819 -71.54587173 1167.57263947 C-79.31568185 1160.61865941 -86.76665217 1153.25478801 -93.52634048 1145.31092072 C-95.4072808 1143.14122197 -97.34751912 1141.03298257 -99.30124283 1138.92884064 C-104.91253134 1132.88039583 -110.20072926 1126.64043708 -115.35837173 1120.19763947 C-116.29242077 1119.05501963 -117.22736267 1117.91312927 -118.16305923 1116.77185822 C-134.61550506 1096.60565182 -149.37200351 1074.74546725 -162.35837173 1052.19763947 C-162.70641861 1051.597742 -163.05446548 1050.99784454 -163.41305923 1050.37976837 C-206.26725579 976.30378719 -228.7334963 896.26305197 -242.21614456 812.34582901 C-245.84505989 789.76812051 -249.77465735 767.38655571 -255.35837173 745.19763947 C-255.66275162 743.95723907 -255.9671315 742.71683868 -256.28073502 741.4388504 C-272.28045252 676.61255435 -298.05118131 612.50276221 -337.35837173 558.19763947 C-338.19199234 557.0415921 -338.19199234 557.0415921 -339.04245377 555.86219025 C-345.87772224 546.41074749 -352.80293563 537.08869859 -360.35837173 528.19763947 C-361.2660075 527.11567841 -362.17355428 526.0336427 -363.08102798 524.95154572 C-376.14032677 509.46641831 -389.9500552 493.98005765 -405.42477798 480.85388947 C-407.66174109 478.9377837 -409.81640751 476.9425109 -411.98337173 474.94763947 C-417.63571011 469.84928219 -423.59294036 465.18921193 -429.61764908 460.54431915 C-431.23257384 459.29496081 -432.83695866 458.03201073 -434.44040298 456.76795197 C-474.8792507 425.10210202 -520.84710395 400.45933202 -568.35837173 381.19763947 C-569.41524185 380.76596466 -570.47211197 380.33428986 -571.56100845 379.889534 C-584.19701052 374.77788268 -596.96968188 370.27810357 -609.94430923 366.11560822 C-611.07080887 365.75304428 -612.1973085 365.39048035 -613.35794449 365.01692963 C-619.00422942 363.20286488 -624.65575941 361.4094555 -630.31930923 359.65003204 C-650.73017866 353.2162401 -670.0843469 344.97868585 -687.35837173 332.19763947 C-687.90606216 331.79722443 -688.45375259 331.39680939 -689.0180397 330.98426056 C-703.13750842 320.60266718 -715.95351072 308.92365769 -728.2746315 296.48719025 C-730.31299667 294.43035939 -732.3594612 292.3818533 -734.40719986 290.33435822 C-735.73384709 289.0028004 -737.06003572 287.67078548 -738.38571548 286.33826447 C-739.28277458 285.43953613 -739.28277458 285.43953613 -740.19795609 284.52265167 C-743.88884249 280.79080822 -747.39344873 276.93870843 -750.81590652 272.95905304 C-752.88930645 270.59134014 -755.10413818 268.39255108 -757.35837173 266.19763947 C-760.20700181 263.38307373 -762.96366486 260.57028695 -765.54587173 257.51013947 C-773.65482464 248.04969441 -782.80477206 239.18626853 -792.35837173 231.19763947 C-793.27231705 230.39455353 -794.18626236 229.59146759 -795.12790298 228.76404572 C-801.81278639 222.92453516 -808.76366339 217.67686677 -816.05051041 212.61121368 C-833.83008848 200.245424 -850.57441689 186.23938393 -865.74899673 170.77576447 C-867.39225513 169.164414 -869.10167369 167.68407627 -870.85837173 166.19763947 C-875.06320111 162.56881411 -878.98970082 158.67974811 -882.92087173 154.76013947 C-883.54606705 154.13945587 -884.17126236 153.51877228 -884.81540298 152.87928009 C-887.8443649 149.84077312 -890.76949616 146.7600929 -893.55759048 143.49842072 C-897.47520041 139.00120358 -901.63269415 134.77908123 -905.85446548 130.56873322 C-907.04302895 129.37873466 -907.04302895 129.37873466 -908.25560379 128.16469574 C-909.92087456 126.49874866 -911.58739202 124.8340469 -913.25510025 123.17053986 C-915.78871795 120.64227812 -918.31695341 118.10872286 -920.84469986 115.57459259 C-922.47263456 113.94731877 -924.10087948 112.32035521 -925.72946548 110.69373322 C-926.47554565 109.94562881 -927.22162582 109.19752441 -927.99031448 108.42675018 C-932.09332555 104.34176294 -936.28024764 100.44549792 -940.71641922 96.72316742 C-942.35837173 95.19763947 -942.35837173 95.19763947 -944.35837173 92.19763947 C-936.682088 89.03973749 -928.70756402 87.07442963 -920.67087173 85.07263947 C-919.89705154 84.879552 -919.12323135 84.68646454 -918.32596207 84.48752594 C-874.00208241 73.49606124 -828.88656481 65.86413417 -783.35837173 62.19763947 C-782.14697525 62.0946756 -780.93557877 61.99171173 -779.6874733 61.88562775 C-739.85441412 58.61018913 -699.17067582 58.68950293 -659.35837173 62.19763947 C-658.64811844 62.25844696 -657.93786514 62.31925446 -657.20608902 62.3819046 C-579.03890895 69.09154303 -499.89404501 85.98356637 -304.17087173 181.88513947 C-275.18171753 203.0116693 -242.39138154 217.36809906 -205.77634048 212.88123322 C-201.16115742 212.06022483 -196.78497092 210.7494932 -192.35837173 209.19763947 C-190.76895767 208.65429962 -190.76895767 208.65429962 -189.14743423 208.09998322 C-177.24946292 203.58854165 -167.37789744 196.04814509 -158.35837173 187.19763947 C-157.69450455 186.55826447 -157.03063736 185.91888947 -156.34665298 185.26013947 C-131.18104419 159.12465934 -125.43326978 121.71816507 -120.42380142 87.43170929 C-111.5186921 26.56564666 -111.5186921 26.56564666 -97.58102798 13.82263947 C-71.38105037 -5.33235296 -30.81667806 -0.11528927 0 0 Z " fill="#0C4674" transform="translate(2299.358371734619,965.802360534668)"/>
<path d="M0 0 C0.91910156 -0.020625 1.83820313 -0.04125 2.78515625 -0.0625 C19.44320421 -0.15266535 35.16647891 4.34363675 50.9375 9.25 C51.86965332 9.53656464 52.80180664 9.82312927 53.76220703 10.11837769 C103.30635611 25.35092505 152.20676518 43.75430088 190.5703125 79.7578125 C192.83451153 81.86358361 195.13833853 83.8809123 197.5 85.875 C201.84003295 89.6223814 205.52034329 93.90910027 209.25 98.25 C205.74554582 107.86197649 201.66728352 117.11423065 197.35202026 126.38235474 C195.44547615 130.47848645 193.55378189 134.58147815 191.66015625 138.68359375 C191.28093521 139.50423813 190.90171417 140.32488251 190.51100159 141.1703949 C185.55712853 151.89959713 180.73699087 162.68789035 175.93066406 173.48388672 C174.4562356 176.79215597 172.97136087 180.09565565 171.48475647 183.39846802 C156.72567681 216.20293025 141.97300121 249.21786838 130.25 283.25 C129.87085449 284.34634766 129.49170898 285.44269531 129.10107422 286.57226562 C116.7969873 322.53251632 107.91973978 360.24591392 105.25 398.25 C105.1660498 399.39098145 105.08209961 400.53196289 104.99560547 401.70751953 C99.27624922 484.94001158 119.0488142 565.02696525 156.25 639.25 C156.92264893 640.59916504 156.92264893 640.59916504 157.60888672 641.97558594 C167.40233055 661.50031768 178.80486143 680.30449476 191.25 698.25 C191.7847998 699.02682129 192.31959961 699.80364258 192.87060547 700.60400391 C200.0626618 711.04201481 207.40099807 721.29609609 215.25 731.25 C216.12986241 732.38597881 217.00873866 733.522722 217.88671875 734.66015625 C226.47000572 745.74221896 235.5457226 756.37638096 244.97924805 766.74389648 C246.41141847 768.32450388 247.83637275 769.91170834 249.25097656 771.50805664 C254.60760242 777.54150112 260.17144823 783.32740965 265.88891602 789.01928711 C267.31839717 790.44337492 268.74240511 791.87278044 270.16601562 793.30273438 C275.3665483 798.49602901 280.65809738 803.48307149 286.25 808.25 C287.45346006 809.30673219 288.65530234 810.36530983 289.85546875 811.42578125 C297.75786565 818.36287501 305.78517289 825.00296213 314.25 831.25 C314.93465332 831.7553125 315.61930664 832.260625 316.32470703 832.78125 C385.02833301 883.28835565 464.59930618 915.46636432 662.97753906 917.60662842 C672.35608249 916.13480769 681.7046021 914.45264915 691.03662109 912.7121582 C705.35615256 910.06435279 719.89712377 907.81464781 734.5 908 C735.32588623 908.00676758 736.15177246 908.01353516 737.00268555 908.02050781 C766.23085176 908.50665466 791.73947012 918.91668047 812.2265625 939.82592773 C826.55259795 954.87507544 836.7348833 972.88657249 847.18945312 990.71142578 C853.65269979 1001.6978005 860.4343278 1012.47985403 867.25 1023.25 C867.86681641 1024.22743164 868.48363281 1025.20486328 869.11914062 1026.21191406 C878.3076895 1040.75483723 887.75823258 1055.10933734 897.36157227 1069.38061523 C902.31481074 1076.75518219 907.13471091 1084.19296101 911.81813049 1091.74201965 C914.80782096 1096.55898266 917.88318163 1101.3056612 921.0625 1106 C925.53165103 1112.65383938 929.94383406 1119.34223097 934.3125 1126.0625 C934.86075439 1126.90458008 935.40900879 1127.74666016 935.97387695 1128.61425781 C936.97809652 1130.16133697 937.97819961 1131.71110012 938.97314453 1133.26416016 C940.02508487 1134.90019891 941.10114684 1136.52070205 942.18359375 1138.13671875 C942.53550781 1138.83410156 942.88742187 1139.53148438 943.25 1140.25 C942.25 1143.25 942.25 1143.25 939.96630859 1144.66943359 C938.95391113 1145.15750488 937.94151367 1145.64557617 936.8984375 1146.1484375 C935.75366943 1146.70345947 934.60890137 1147.25848145 933.42944336 1147.83032227 C932.16179516 1148.42960608 930.89363133 1149.0278002 929.625 1149.625 C928.97886749 1149.93235077 928.33273499 1150.23970154 927.66702271 1150.55636597 C882.36582787 1172.08908764 834.97031491 1188.41268211 786.25 1200.25 C785.1244873 1200.52440918 783.99897461 1200.79881836 782.83935547 1201.08154297 C757.29460018 1207.22916453 731.3414969 1211.48403148 705.25 1214.5 C703.30770508 1214.72647217 703.30770508 1214.72647217 701.32617188 1214.95751953 C696.97073127 1215.43493869 692.6136811 1215.85633691 688.25 1216.25 C686.83489639 1216.3808046 686.83489639 1216.3808046 685.39120483 1216.51425171 C664.27421146 1218.4096471 643.24579287 1218.61021738 622.0625 1218.5625 C620.31833909 1218.5602775 618.57417812 1218.55810099 616.83001709 1218.55596924 C592.38287924 1218.51458012 568.05616881 1218.26119675 543.73571777 1215.52862549 C541.04630958 1215.22716823 538.35576109 1214.93743403 535.66503906 1214.64794922 C448.35642773 1205.13940475 361.42274325 1184.99744312 156.25 1083.25 C155.46496094 1082.70843262 154.67992187 1082.16686523 153.87109375 1081.60888672 C143.85039499 1074.6804532 133.90351237 1067.68417472 124.25 1060.25 C123.58291016 1059.74001465 122.91582031 1059.2300293 122.22851562 1058.70458984 C113.07962815 1051.70565055 104.12037096 1044.56138052 95.43359375 1036.99609375 C92.47285196 1034.42235361 89.43483136 1031.95542023 86.375 1029.5 C82.46481178 1026.32833928 78.85950528 1023.01879947 75.39453125 1019.3671875 C73.51005129 1017.50673552 71.57978954 1015.7920572 69.57324219 1014.06665039 C65.53730316 1010.54561001 61.71353103 1006.85878823 57.93359375 1003.06640625 C57.27343765 1002.40720688 56.61328156 1001.74800751 55.93312073 1001.0688324 C54.54964494 999.68603165 53.16740917 998.30198924 51.78637695 996.91674805 C49.69268331 994.81769657 47.59370126 992.7240406 45.49414062 990.63085938 C44.14030429 989.27636214 42.78677825 987.92155469 41.43359375 986.56640625 C40.81673203 985.95156876 40.1998703 985.33673126 39.5643158 984.70326233 C35.81384443 980.93289827 32.2508955 977.04415789 28.77818298 973.01629639 C26.6952478 970.60880924 24.53507345 968.27576133 22.375 965.9375 C17.45375795 960.53523429 12.8360094 954.93694329 8.25 949.25 C7.27592134 948.06673451 6.30059 946.88449947 5.32421875 945.703125 C-26.85462533 906.65306903 -54.41823939 863.94364161 -78.13378906 819.29003906 C-79.19875041 817.28688216 -80.26830624 815.28616013 -81.34277344 813.28808594 C-121.6705184 738.26607176 -150.11997702 654.67143215 -179.75 469.25 C-179.82347656 468.21601074 -179.89695312 467.18202148 -179.97265625 466.11669922 C-185.42694023 384.54904274 -175.04104311 301.42920561 -115.75 117.25 C-115.33492187 116.30415039 -114.91984375 115.35830078 -114.4921875 114.38378906 C-108.92320147 101.77038596 -102.92340419 89.36555614 -96.80569458 77.01092529 C-96.0322956 75.44805525 -95.26126946 73.88400823 -94.4928894 72.31866455 C-87.59274831 58.28852307 -79.93941578 45.2003051 -69.75 33.25 C-69.07582031 32.43015625 -68.40164063 31.6103125 -67.70703125 30.765625 C-54.26795291 15.00102309 -36.89231753 5.46417282 -16.75 1.25 C-15.83992187 1.05792969 -14.92984375 0.86585937 -13.9921875 0.66796875 C-9.32458252 0.06624136 -4.70198974 0.02511076 0 0 Z " fill="#0C4674" transform="translate(955.75,1389.75)"/>
<path d="M0 0 C3.83022483 -0.0032121 7.66042511 -0.01031461 11.49064255 -0.01837158 C17.59370233 -0.03018352 23.69666217 -0.03045638 29.79972649 -0.02187347 C32.06654496 -0.01989687 34.33336869 -0.0210157 36.60018349 -0.02555084 C80.98353871 -0.09841053 80.98353871 -0.09841053 91.99018478 10.43426514 C100.09927203 20.28404651 101.82152184 33.78766491 102.65093613 46.09599304 C102.73061534 47.21201934 102.81029455 48.32804563 102.89238828 49.47789091 C103.74180654 62.49462062 103.78636369 75.51342655 103.78438747 88.55268943 C103.78606029 92.21049939 103.79925486 95.86827276 103.81092453 99.52606201 C103.82960998 105.84372878 103.84144345 112.16137678 103.84846306 118.47906685 C103.85877373 127.6748859 103.88093414 136.87064941 103.90584897 146.06643914 C103.94628502 161.07632432 103.97879118 176.08621497 104.00556564 191.09613037 C104.03131677 205.51605754 104.0585856 219.93597897 104.08955002 234.355896 C104.09144616 235.23981884 104.09334231 236.12374168 104.09529591 237.03445006 C104.11626371 246.76211295 104.13833481 256.48977265 104.16208172 266.21742916 C104.16419259 267.08213047 104.16630346 267.94683179 104.16847829 268.83773617 C104.17696382 272.30324344 104.18547881 275.76875063 104.19414829 279.23425745 C104.21712487 288.4192705 104.23831594 297.6042774 104.25257683 306.78930855 C104.30996796 343.66721508 104.56055374 380.52265184 105.3172577 417.39394647 C105.5129325 427.1984778 105.60943985 437.00306251 105.66987228 446.80926514 C105.67497688 447.54161562 105.68008148 448.2739661 105.68534076 449.02850902 C105.80431241 467.47590134 104.88156936 487.17760821 91.48237228 501.24676514 C90.97190353 501.79719482 90.46143478 502.34762451 89.93549728 502.91473389 C70.51127885 521.61775609 35.57252953 519.40644574 10.7987175 519.22937012 C-5.15664625 519.12538198 -21.0729489 519.55723586 -37.01762772 520.12176514 C-38.27295303 520.16589539 -39.52827835 520.21002563 -40.82164383 520.25549316 C-47.34379816 520.48561358 -53.86579782 520.71983625 -60.3877449 520.95574951 C-72.2584483 521.38408599 -84.13008032 521.78451909 -96.00222778 522.17063332 C-100.62797711 522.32119834 -105.25347364 522.47829742 -109.87895584 522.63690186 C-209.24735894 525.94314242 -209.24735894 525.94314242 -226.51762772 510.24676514 C-229.33151256 506.31984793 -229.94890054 503.40656824 -230.16240311 498.61199951 C-230.19462243 497.96143333 -230.22684175 497.31086716 -230.26003742 496.64058685 C-230.36083263 494.50967277 -230.44050443 492.3786579 -230.51762772 490.24676514 C-230.5774176 488.79989233 -230.63755164 487.3530337 -230.69801712 485.90618896 C-230.89120372 481.07258268 -231.04726297 476.23800466 -231.20122147 471.40301514 C-231.26158379 469.55854526 -231.32203148 467.71407818 -231.38255692 465.86961365 C-234.35114536 374.62254252 -235.98623099 283.41380315 -234.79361999 88.85823274 C-234.72428163 84.13635815 -234.66085417 79.41442862 -234.5995369 74.69244385 C-234.51645215 68.40388009 -234.41797936 62.1157434 -234.30687523 55.82761383 C-234.26828426 53.53817275 -234.23422622 51.24864987 -234.20514107 48.9590683 C-234.16415656 45.83255815 -234.10531299 42.70687215 -234.04179764 39.58074951 C-234.03388325 38.68818829 -234.02596886 37.79562706 -234.01781464 36.87601852 C-233.76920109 26.8045335 -231.69238996 17.42152738 -224.39262772 10.12176514 C-207.05419798 -1.18590643 -182.76746947 2.04226997 -162.91463089 2.21014404 C-154.82800172 2.27718157 -146.74122662 2.29920913 -138.65434647 2.30926514 C-137.83346479 2.31036285 -137.01258312 2.31146057 -136.16682625 2.31259155 C-122.00079641 2.32287783 -107.87664562 1.95385547 -93.72093582 1.39117432 C-62.48371278 0.15217967 -31.25945485 0.01723822 0 0 Z " fill="#0C4674" transform="translate(2408.5176277160645,19.75323486328125)"/>
</svg>
