<?xml version="1.0" encoding="UTF-8"?>
<svg xmlns="http://www.w3.org/2000/svg" xmlns:xlink="http://www.w3.org/1999/xlink" width="2000px" height="1500px" viewBox="0 0 2000 1500" version="1.1">
<g id="surface1">
<path style=" stroke:none;fill-rule:nonzero;fill:rgb(4.705882%,27.45098%,45.490196%);fill-opacity:1;" d="M 51.402344 -0.0820312 C 52.613281 -0.0859375 53.820312 -0.0898438 55.027344 -0.0898438 C 58.292969 -0.09375 61.554688 -0.0976562 64.820312 -0.0976562 C 66.867188 -0.0976562 68.910156 -0.0976562 70.957031 -0.0976562 C 78.101562 -0.101562 85.25 -0.105469 92.398438 -0.105469 C 99.039062 -0.105469 105.675781 -0.113281 112.316406 -0.121094 C 118.035156 -0.128906 123.757812 -0.132812 129.476562 -0.132812 C 132.882812 -0.132812 136.289062 -0.132812 139.695312 -0.136719 C 142.90625 -0.144531 146.113281 -0.144531 149.320312 -0.140625 C 150.492188 -0.136719 151.660156 -0.140625 152.828125 -0.144531 C 166.910156 -0.183594 182.753906 -0.0585938 193.535156 10.097656 C 204.117188 21.074219 202.984375 40.878906 202.960938 55.003906 C 202.960938 56.042969 202.960938 57.089844 202.960938 58.128906 C 202.960938 60.988281 202.960938 63.84375 202.957031 66.699219 C 202.957031 69.816406 202.957031 72.921875 202.957031 76.035156 C 202.957031 81.488281 202.953125 86.933594 202.949219 92.386719 C 202.945312 100.496094 202.945312 108.601562 202.945312 116.703125 C 202.945312 129.925781 202.941406 143.148438 202.933594 156.367188 C 202.929688 170.292969 202.925781 184.222656 202.921875 198.15625 C 202.921875 198.574219 202.921875 198.996094 202.921875 199.425781 C 202.921875 204.121094 202.921875 208.816406 202.921875 213.511719 C 202.917969 222.191406 202.917969 230.871094 202.914062 239.550781 C 202.914062 240.207031 202.914062 240.207031 202.914062 240.871094 C 202.914062 261.535156 202.910156 282.199219 202.902344 302.863281 C 202.902344 304.234375 202.902344 305.605469 202.898438 306.976562 C 202.898438 321.199219 202.894531 335.417969 202.890625 349.644531 C 202.886719 363.398438 202.882812 377.152344 202.878906 390.910156 C 202.878906 392.277344 202.878906 393.648438 202.878906 395.019531 C 202.871094 415.660156 202.867188 436.296875 202.863281 456.9375 C 202.863281 457.371094 202.863281 457.804688 202.863281 458.253906 C 202.863281 466.925781 202.863281 475.597656 202.859375 484.269531 C 202.859375 488.960938 202.859375 493.65625 202.859375 498.347656 C 202.855469 498.765625 202.855469 499.183594 202.855469 499.617188 C 202.855469 513.535156 202.851562 527.457031 202.847656 541.378906 C 202.839844 554.941406 202.835938 568.503906 202.835938 582.074219 C 202.835938 590.128906 202.832031 598.1875 202.828125 606.238281 C 202.824219 611.628906 202.824219 617.011719 202.824219 622.402344 C 202.824219 625.464844 202.824219 628.527344 202.820312 631.597656 C 202.820312 634.390625 202.820312 637.191406 202.820312 639.984375 C 202.820312 640.984375 202.820312 641.980469 202.820312 642.980469 C 202.808594 648.253906 202.898438 653.511719 203.136719 658.785156 C 203.160156 659.265625 203.179688 659.746094 203.203125 660.238281 C 203.855469 673.203125 207.167969 685.214844 212.335938 697.097656 C 212.714844 698.101562 212.714844 698.101562 212.714844 699.238281 C 215.597656 697.410156 218.269531 695.382812 220.953125 693.285156 C 225.773438 689.558594 230.695312 685.996094 235.679688 682.488281 C 237.027344 681.535156 238.375 680.574219 239.71875 679.609375 C 244.523438 676.15625 249.363281 672.796875 254.335938 669.582031 C 255.308594 668.933594 256.28125 668.292969 257.253906 667.644531 C 298.726562 640.152344 343.429688 618.179688 490.75 584.03125 C 491.480469 583.972656 492.210938 583.910156 492.960938 583.847656 C 501.746094 583.234375 510.5625 583.316406 519.367188 583.316406 C 519.800781 583.316406 520.238281 583.316406 520.6875 583.316406 C 535.050781 583.3125 549.292969 583.632812 563.585938 585.167969 C 564.039062 585.21875 564.5 585.265625 564.972656 585.320312 C 611.945312 590.308594 658.023438 602.464844 763.113281 650.378906 C 764.617188 651.257812 766.125 652.128906 767.632812 652.996094 C 781.738281 661.152344 795.460938 670.308594 808.320312 680.269531 C 809.289062 681.023438 810.269531 681.769531 811.246094 682.519531 C 814.949219 685.355469 818.585938 688.261719 822.152344 691.269531 C 824.050781 692.867188 825.976562 694.425781 827.925781 695.957031 C 831.894531 699.144531 835.570312 702.644531 839.277344 706.121094 C 840.789062 707.53125 842.320312 708.929688 843.851562 710.324219 C 849.183594 715.199219 854.484375 720.121094 859.207031 725.597656 C 860.144531 726.648438 861.125 727.628906 862.136719 728.613281 C 864.285156 730.703125 866.246094 732.914062 868.210938 735.167969 C 868.730469 735.769531 869.257812 736.363281 869.78125 736.953125 C 873.273438 740.925781 876.632812 744.964844 879.898438 749.113281 C 881.253906 750.839844 882.640625 752.527344 884.03125 754.222656 C 896.515625 769.425781 907.453125 786.097656 917.339844 803.042969 C 917.835938 803.886719 917.835938 803.886719 918.339844 804.75 C 941.328125 844.164062 958.539062 886.867188 983.816406 988.972656 C 983.902344 989.429688 983.992188 989.882812 984.082031 990.351562 C 984.984375 995.019531 985.867188 999.691406 986.707031 1004.371094 C 1006.023438 985.898438 1011.398438 960.597656 1016.613281 935.59375 C 1018.789062 925.238281 1022.007812 915.324219 1025.398438 905.304688 C 1026.515625 901.980469 1027.507812 898.632812 1028.46875 895.261719 C 1030.988281 886.644531 1035.195312 877.308594 1043.351562 872.621094 C 1050.308594 869.363281 1057.742188 867.589844 1065.28125 870.128906 C 1075.898438 874.613281 1081.789062 884.082031 1087.902344 893.234375 C 1090.554688 897.113281 1093.492188 900.777344 1096.382812 904.480469 C 1100.789062 910.144531 1105.09375 915.824219 1109.109375 921.757812 C 1109.8125 922.796875 1110.523438 923.828125 1111.234375 924.859375 C 1143.21875 971.382812 1163.34375 1024.226562 1168.027344 1086.011719 C 1168.902344 1097.710938 1169.957031 1109.203125 1172.253906 1120.722656 C 1172.390625 1121.410156 1172.523438 1122.097656 1172.664062 1122.808594 C 1175.148438 1134.992188 1179 1146.679688 1183.238281 1158.367188 C 1183.445312 1158.941406 1183.65625 1159.519531 1183.871094 1160.113281 C 1195.441406 1191.441406 1215.046875 1219.902344 1237.929688 1244.199219 C 1238.742188 1245.070312 1239.542969 1245.949219 1240.34375 1246.832031 C 1244.929688 1251.855469 1249.859375 1256.464844 1254.914062 1261.027344 C 1255.460938 1261.519531 1256.003906 1262.019531 1256.5625 1262.527344 C 1259.957031 1265.582031 1263.476562 1268.457031 1267.054688 1271.292969 C 1267.710938 1271.828125 1268.375 1272.359375 1269.039062 1272.894531 C 1274.367188 1277.183594 1279.882812 1281.140625 1285.550781 1284.980469 C 1285.894531 1285.214844 1286.242188 1285.453125 1286.59375 1285.695312 C 1340.835938 1322.785156 1405.902344 1339.824219 1505.996094 1331.359375 C 1523.507812 1328.183594 1540.480469 1323.425781 1557.226562 1317.488281 C 1557.945312 1317.238281 1558.664062 1316.980469 1559.398438 1316.722656 C 1575.824219 1310.8125 1591.476562 1303.144531 1606.359375 1294.105469 C 1606.847656 1293.816406 1607.335938 1293.519531 1607.839844 1293.214844 C 1622.679688 1284.296875 1636.332031 1273.738281 1649.132812 1262.167969 C 1649.429688 1261.902344 1649.722656 1261.636719 1650.027344 1261.363281 C 1655.179688 1256.726562 1660.277344 1252.082031 1664.820312 1246.847656 C 1666.0625 1245.441406 1667.351562 1244.074219 1668.640625 1242.707031 C 1671.703125 1239.394531 1674.496094 1235.90625 1677.265625 1232.351562 C 1677.984375 1231.433594 1678.710938 1230.519531 1679.4375 1229.613281 C 1686.617188 1220.570312 1693.039062 1211.09375 1698.84375 1201.144531 C 1699.085938 1200.722656 1699.332031 1200.308594 1699.585938 1199.882812 C 1710.898438 1180.53125 1719.269531 1160.242188 1726.011719 1138.972656 C 1726.21875 1138.316406 1726.429688 1137.660156 1726.640625 1136.984375 C 1741.808594 1088.285156 1742.464844 1035.066406 1704.214844 914.699219 C 1700.261719 907.496094 1695.992188 900.5 1691.328125 893.722656 C 1691.023438 893.277344 1690.714844 892.832031 1690.398438 892.371094 C 1683.40625 882.253906 1675.894531 872.640625 1667.632812 863.5 C 1666.910156 862.691406 1666.910156 862.691406 1666.175781 861.867188 C 1662.609375 857.949219 1658.859375 854.21875 1655.09375 850.488281 C 1654.578125 849.976562 1654.0625 849.464844 1653.53125 848.9375 C 1650.617188 846.066406 1647.644531 843.320312 1644.507812 840.683594 C 1643.949219 840.203125 1643.394531 839.71875 1642.820312 839.222656 C 1618.332031 818.394531 1590.042969 803.152344 1559.980469 791.761719 C 1546.722656 786.722656 1534.640625 781.332031 1523.699219 772.242188 C 1523.230469 771.863281 1522.761719 771.488281 1522.277344 771.097656 C 1505.308594 756.832031 1499.996094 735.167969 1498.195312 714.140625 C 1497.136719 700.1875 1497 686.207031 1497.003906 672.222656 C 1497.003906 670.453125 1497 668.6875 1496.992188 666.917969 C 1496.816406 626.878906 1496.816406 626.878906 1507.058594 616.230469 C 1515.585938 609.363281 1526.949219 610.023438 1537.324219 611.039062 C 1549.90625 612.621094 1562.289062 615.753906 1574.566406 618.820312 C 1575.085938 618.953125 1575.605469 619.082031 1576.140625 619.214844 C 1597.382812 624.507812 1618.085938 630.605469 1638.148438 639.355469 C 1638.816406 639.640625 1639.476562 639.933594 1640.164062 640.226562 C 1656.09375 647.210938 1671.320312 655.378906 1686.128906 664.449219 C 1686.667969 664.777344 1687.210938 665.109375 1687.769531 665.449219 C 1696.089844 670.542969 1704.148438 675.980469 1712.136719 681.558594 C 1712.53125 681.832031 1712.925781 682.105469 1713.332031 682.386719 C 1715.644531 683.996094 1717.941406 685.621094 1720.230469 687.261719 C 1720.636719 687.558594 1721.046875 687.847656 1721.464844 688.148438 C 1727.414062 692.417969 1733.273438 696.792969 1739.066406 701.269531 C 1741.179688 702.902344 1743.320312 704.511719 1745.460938 706.109375 C 1751.441406 710.582031 1757.300781 715.128906 1762.539062 720.449219 C 1763.929688 721.828125 1765.414062 723.089844 1766.914062 724.355469 C 1768.164062 725.4375 1769.363281 726.566406 1770.5625 727.703125 C 1781.976562 738.375 1796.316406 744.402344 1812.136719 744.300781 C 1814.710938 727.03125 1817.078125 709.792969 1818.496094 692.394531 C 1818.550781 691.777344 1818.550781 691.777344 1818.601562 691.152344 C 1822.511719 644.292969 1824.195312 572.972656 1792.089844 534.726562 C 1775.066406 514.925781 1750.75 512.695312 1726.226562 509.816406 C 1725.609375 509.742188 1724.988281 509.667969 1724.351562 509.59375 C 1717.707031 508.8125 1711.058594 508.097656 1704.394531 507.535156 C 1703.882812 507.496094 1703.367188 507.449219 1702.839844 507.402344 C 1701.121094 507.269531 1699.40625 507.148438 1697.6875 507.035156 C 1697.011719 506.984375 1696.335938 506.9375 1695.636719 506.886719 C 1686.492188 506.296875 1677.332031 506.375 1668.167969 506.378906 C 1665.640625 506.375 1663.113281 506.371094 1660.585938 506.371094 C 1656.160156 506.363281 1651.738281 506.363281 1647.3125 506.363281 C 1640.734375 506.355469 1634.15625 506.347656 1627.574219 506.34375 C 1616.5 506.332031 1605.421875 506.324219 1594.347656 506.316406 C 1579.199219 506.300781 1564.050781 506.292969 1548.902344 506.277344 C 1541.832031 506.269531 1534.761719 506.261719 1527.695312 506.253906 C 1526.632812 506.253906 1526.632812 506.253906 1525.550781 506.253906 C 1508.714844 506.234375 1491.878906 506.222656 1475.042969 506.207031 C 1474.308594 506.207031 1473.570312 506.207031 1472.8125 506.207031 C 1462.367188 506.199219 1451.921875 506.1875 1441.476562 506.179688 C 1428.820312 506.171875 1416.167969 506.160156 1403.515625 506.152344 C 1402.785156 506.152344 1402.050781 506.148438 1401.292969 506.148438 C 1384.523438 506.132812 1367.75 506.117188 1350.976562 506.105469 C 1349.917969 506.105469 1349.917969 506.105469 1348.835938 506.101562 C 1341.773438 506.089844 1334.710938 506.085938 1327.648438 506.082031 C 1312.527344 506.066406 1297.410156 506.050781 1282.289062 506.042969 C 1271.253906 506.035156 1260.21875 506.019531 1249.179688 506.011719 C 1243.21875 506.007812 1237.253906 506 1231.289062 505.996094 C 1189.789062 505.976562 1189.789062 505.976562 1172.984375 505.632812 C 1172.425781 505.621094 1171.867188 505.609375 1171.296875 505.597656 C 1118.320312 504.457031 1118.320312 504.457031 1104.105469 490.644531 C 1103.707031 490.21875 1103.304688 489.792969 1102.890625 489.355469 C 1102.519531 488.960938 1102.148438 488.574219 1101.761719 488.167969 C 1085.320312 469.167969 1091.9375 432.574219 1093.726562 409.902344 C 1093.96875 406.894531 1094.21875 403.886719 1094.472656 400.878906 C 1094.53125 400.160156 1094.589844 399.441406 1094.652344 398.699219 C 1097.492188 364.84375 1097.492188 364.84375 1109.25 354.183594 C 1118.492188 347.417969 1130.179688 346.09375 1141.378906 346.128906 C 1141.976562 346.128906 1142.570312 346.128906 1143.1875 346.128906 C 1145.207031 346.128906 1147.226562 346.132812 1149.246094 346.140625 C 1150.742188 346.140625 1152.230469 346.144531 1153.726562 346.144531 C 1157.039062 346.144531 1160.351562 346.144531 1163.664062 346.152344 C 1168.757812 346.15625 1173.859375 346.160156 1178.957031 346.164062 C 1187.558594 346.167969 1196.164062 346.175781 1204.769531 346.183594 C 1220.742188 346.199219 1236.714844 346.207031 1252.691406 346.214844 C 1259.515625 346.214844 1266.34375 346.21875 1273.171875 346.222656 C 1273.75 346.222656 1273.75 346.222656 1274.339844 346.222656 C 1293.789062 346.234375 1313.234375 346.246094 1332.679688 346.257812 C 1333.113281 346.257812 1333.542969 346.257812 1333.988281 346.257812 C 1362.660156 346.269531 1391.328125 346.292969 1420 346.3125 C 1420.699219 346.3125 1420.699219 346.3125 1421.414062 346.3125 C 1442.542969 346.332031 1463.671875 346.339844 1484.800781 346.359375 C 1493.609375 346.363281 1502.417969 346.371094 1511.226562 346.378906 C 1512.699219 346.378906 1514.175781 346.378906 1515.648438 346.378906 C 1546.898438 346.402344 1578.148438 346.425781 1609.394531 346.4375 C 1632.351562 346.449219 1655.304688 346.464844 1678.257812 346.480469 C 1678.96875 346.480469 1678.96875 346.480469 1679.691406 346.480469 C 1690.054688 346.492188 1700.414062 346.496094 1710.777344 346.503906 C 1714.945312 346.507812 1719.113281 346.511719 1723.28125 346.519531 C 1723.964844 346.519531 1723.964844 346.519531 1724.664062 346.519531 C 1739.285156 346.527344 1753.910156 346.539062 1768.53125 346.542969 C 1783.21875 346.550781 1797.910156 346.558594 1812.597656 346.574219 C 1814.628906 346.574219 1816.660156 346.574219 1818.695312 346.574219 C 1819.089844 346.578125 1819.492188 346.578125 1819.898438 346.578125 C 1826.558594 346.589844 1833.214844 346.589844 1839.875 346.589844 C 1845.679688 346.589844 1851.488281 346.59375 1857.292969 346.601562 C 1860.597656 346.609375 1863.898438 346.613281 1867.195312 346.609375 C 1901.167969 346.589844 1901.167969 346.589844 1915.789062 349.152344 C 1916.496094 349.277344 1917.207031 349.402344 1917.9375 349.523438 C 1928.167969 351.359375 1938.070312 354.183594 1947.398438 358.746094 C 1947.761719 358.917969 1948.121094 359.089844 1948.496094 359.273438 C 1968.867188 369.152344 1983.167969 386.378906 1990.714844 407.40625 C 1997.789062 428.089844 1999.539062 449.269531 1999.765625 470.957031 C 1999.777344 472.257812 1999.792969 473.550781 1999.808594 474.847656 C 2000.042969 493.386719 2000.085938 511.925781 2000.082031 530.464844 C 2000.082031 535.277344 2000.085938 540.089844 2000.085938 544.898438 C 2000.089844 553.878906 2000.089844 562.855469 2000.09375 571.835938 C 2000.09375 580.902344 2000.09375 589.972656 2000.097656 599.042969 C 2000.097656 599.621094 2000.097656 600.199219 2000.097656 600.792969 C 2000.101562 603.144531 2000.101562 605.503906 2000.101562 607.855469 C 2000.109375 635.535156 2000.113281 663.210938 2000.117188 690.886719 C 2000.117188 704.675781 2000.117188 718.460938 2000.121094 732.25 C 2000.128906 776.535156 2000.132812 820.824219 2000.136719 865.105469 C 2000.136719 867.214844 2000.136719 869.324219 2000.136719 871.433594 C 2000.136719 875.667969 2000.136719 879.894531 2000.136719 884.128906 C 2000.136719 889.082031 2000.136719 894.03125 2000.136719 898.988281 C 2000.136719 900.402344 2000.136719 901.820312 2000.136719 903.238281 C 2000.140625 948.84375 2000.148438 994.449219 2000.164062 1040.058594 C 2000.171875 1072.894531 2000.179688 1105.730469 2000.183594 1138.5625 C 2000.183594 1139.574219 2000.183594 1139.574219 2000.183594 1140.605469 C 2000.183594 1155.421875 2000.1875 1170.238281 2000.1875 1185.050781 C 2000.1875 1190.351562 2000.1875 1195.65625 2000.1875 1200.957031 C 2000.1875 1202.273438 2000.1875 1203.589844 2000.1875 1204.910156 C 2000.1875 1225.902344 2000.195312 1246.902344 2000.203125 1267.898438 C 2000.210938 1289.019531 2000.210938 1310.148438 2000.210938 1331.269531 C 2000.210938 1334.1875 2000.207031 1337.105469 2000.207031 1340.023438 C 2000.207031 1340.597656 2000.207031 1341.167969 2000.207031 1341.757812 C 2000.207031 1350.816406 2000.210938 1359.871094 2000.214844 1368.929688 C 2000.222656 1377.832031 2000.222656 1386.734375 2000.214844 1395.636719 C 2000.210938 1400.859375 2000.210938 1406.082031 2000.222656 1411.292969 C 2000.226562 1414.761719 2000.226562 1418.230469 2000.21875 1421.699219 C 2000.214844 1423.667969 2000.214844 1425.632812 2000.222656 1427.597656 C 2000.300781 1455.324219 2000.300781 1455.324219 1990.75 1465.210938 C 1990.414062 1465.566406 1990.078125 1465.917969 1989.730469 1466.285156 C 1981.558594 1474.097656 1970.292969 1474.597656 1959.597656 1474.480469 C 1957.769531 1474.457031 1955.941406 1474.453125 1954.113281 1474.449219 C 1950.867188 1474.433594 1947.625 1474.410156 1944.382812 1474.386719 C 1938.625 1474.339844 1932.867188 1474.308594 1927.109375 1474.285156 C 1926.488281 1474.28125 1925.863281 1474.277344 1925.222656 1474.273438 C 1915.992188 1474.246094 1906.832031 1474.542969 1897.625 1475.128906 C 1897.226562 1475.15625 1896.832031 1475.183594 1896.425781 1475.207031 C 1895.847656 1475.246094 1895.847656 1475.246094 1895.253906 1475.28125 C 1889.789062 1475.621094 1884.316406 1475.667969 1878.839844 1475.652344 C 1877.09375 1475.652344 1875.347656 1475.667969 1873.601562 1475.679688 C 1857.871094 1475.730469 1840.425781 1473.210938 1828.324219 1462.355469 C 1827.878906 1461.96875 1827.433594 1461.585938 1826.976562 1461.1875 C 1820.085938 1454.851562 1816.675781 1445.785156 1816.066406 1436.605469 C 1816.007812 1434.628906 1815.996094 1432.648438 1816.003906 1430.667969 C 1816.007812 1429.929688 1816.007812 1429.195312 1816.007812 1428.4375 C 1816.046875 1422.746094 1816.492188 1417.121094 1817.054688 1411.457031 C 1819.710938 1390.625 1819.710938 1390.625 1812.882812 1371.566406 C 1811.761719 1370.347656 1810.609375 1369.167969 1809.429688 1368.003906 C 1808.644531 1367.207031 1807.859375 1366.410156 1807.074219 1365.613281 C 1806.554688 1365.097656 1806.554688 1365.097656 1806.027344 1364.574219 C 1805.203125 1363.6875 1805.203125 1363.6875 1804.625 1362.546875 C 1801.695312 1363.433594 1799.699219 1365.203125 1797.398438 1367.109375 C 1796.566406 1367.789062 1795.734375 1368.464844 1794.898438 1369.144531 C 1794.492188 1369.480469 1794.082031 1369.8125 1793.65625 1370.160156 C 1791.464844 1371.921875 1789.214844 1373.605469 1786.964844 1375.300781 C 1785.074219 1376.722656 1783.203125 1378.167969 1781.328125 1379.613281 C 1769.992188 1388.355469 1758.40625 1396.785156 1746.75 1405.105469 C 1746.378906 1405.378906 1746.007812 1405.640625 1745.621094 1405.917969 C 1744.289062 1406.863281 1742.957031 1407.800781 1741.617188 1408.746094 C 1741.28125 1408.984375 1740.945312 1409.222656 1740.601562 1409.464844 C 1734.292969 1413.894531 1727.910156 1418.207031 1721.460938 1422.433594 C 1720.773438 1422.882812 1720.773438 1422.882812 1720.078125 1423.339844 C 1676.769531 1451.746094 1630.175781 1475.75 1493.84375 1500.097656 C 1492.695312 1500.097656 1491.550781 1500.097656 1490.402344 1500.097656 C 1488.003906 1500.105469 1485.601562 1500.105469 1483.203125 1500.105469 C 1480.796875 1500.105469 1478.390625 1500.113281 1475.984375 1500.117188 C 1455.011719 1500.183594 1434.117188 1499.628906 1413.222656 1497.824219 C 1412.65625 1497.777344 1412.085938 1497.730469 1411.503906 1497.679688 C 1383.269531 1495.285156 1355.324219 1491.0625 1327.746094 1484.601562 C 1327.335938 1484.503906 1326.921875 1484.410156 1326.5 1484.308594 C 1272.992188 1471.765625 1222.683594 1448.597656 1170.519531 1409.886719 C 1169.976562 1409.457031 1169.429688 1409.019531 1168.871094 1408.574219 C 1163.1875 1404.019531 1157.585938 1399.363281 1152.164062 1394.503906 C 1151.035156 1393.496094 1149.890625 1392.511719 1148.734375 1391.527344 C 1142.0625 1385.777344 1135.738281 1379.652344 1129.484375 1373.464844 C 1128.308594 1372.300781 1127.132812 1371.144531 1125.957031 1369.988281 C 1125.191406 1369.230469 1124.429688 1368.472656 1123.664062 1367.722656 C 1123.320312 1367.386719 1122.976562 1367.042969 1122.621094 1366.695312 C 1120.492188 1364.582031 1118.476562 1362.402344 1116.507812 1360.152344 C 1115.207031 1358.667969 1113.851562 1357.246094 1112.5 1355.808594 C 1110.019531 1353.160156 1107.667969 1350.429688 1105.375 1347.617188 C 1104.207031 1346.199219 1103.007812 1344.808594 1101.804688 1343.421875 C 1098.070312 1339.132812 1094.578125 1334.6875 1091.140625 1330.167969 C 1090.507812 1329.335938 1089.875 1328.511719 1089.238281 1327.683594 C 1056.867188 1285.671875 1033.277344 1237.195312 1003.539062 1114.625 C 1003.449219 1113.957031 1003.449219 1113.957031 1003.359375 1113.265625 C 1002.65625 1107.964844 1002.082031 1102.675781 1001.734375 1097.339844 C 989.710938 1097.707031 989.710938 1097.707031 979.191406 1103.042969 C 973.292969 1109.683594 973.015625 1118.183594 972.289062 1126.609375 C 969.898438 1153.839844 961.476562 1179.699219 950.289062 1204.566406 C 949.960938 1205.289062 949.636719 1206.015625 949.3125 1206.742188 C 923.101562 1265.160156 923.101562 1265.160156 901.914062 1273.253906 C 864.046875 1284.878906 813.015625 1260.015625 780.417969 1243.164062 C 770.113281 1237.691406 758.414062 1230.683594 754.683594 1219.058594 C 750.375 1202.144531 762.460938 1184.507812 770.269531 1170.308594 C 792.71875 1129.410156 804.046875 1084.386719 805.78125 1038.023438 C 805.800781 1037.464844 805.820312 1036.90625 805.84375 1036.332031 C 807.511719 983.152344 791.265625 928.050781 738.664062 850.585938 C 737.589844 849.355469 736.53125 848.125 735.480469 846.882812 C 731.347656 842.011719 726.953125 837.460938 722.378906 832.992188 C 721.230469 831.871094 720.089844 830.746094 718.949219 829.617188 C 715.429688 826.152344 711.90625 822.730469 708.09375 819.582031 C 707.507812 819.082031 706.925781 818.582031 706.34375 818.082031 C 658.96875 778.050781 599.402344 753.78125 499.222656 750.007812 C 466.652344 752.714844 435.101562 760.351562 405.203125 773.386719 C 404.34375 773.753906 404.34375 773.753906 403.46875 774.132812 C 379.890625 784.355469 357.808594 797.972656 337.996094 814.199219 C 337.109375 814.925781 336.210938 815.636719 335.308594 816.347656 C 331.035156 819.707031 327.074219 823.371094 323.105469 827.082031 C 321.953125 828.144531 320.789062 829.207031 319.625 830.265625 C 314.644531 834.777344 314.644531 834.777344 310.09375 839.710938 C 309.210938 840.726562 308.273438 841.644531 307.296875 842.574219 C 305.152344 844.660156 303.289062 846.929688 301.410156 849.238281 C 300.214844 850.691406 298.992188 852.105469 297.75 853.515625 C 290.992188 861.21875 285.234375 869.695312 279.769531 878.324219 C 279.554688 878.667969 279.335938 879.007812 279.113281 879.359375 C 252.824219 920.882812 238.628906 969.886719 235.722656 1026.730469 C 235.714844 1027.480469 235.710938 1028.230469 235.710938 1029.003906 C 235.695312 1031.402344 235.695312 1033.804688 235.695312 1036.203125 C 235.695312 1036.820312 235.695312 1036.820312 235.695312 1037.441406 C 235.6875 1049.699219 235.878906 1061.789062 237.570312 1073.957031 C 237.667969 1074.699219 237.765625 1075.433594 237.863281 1076.199219 C 244.035156 1123.707031 261.582031 1169.90625 291.328125 1207.988281 C 291.582031 1208.304688 291.832031 1208.628906 292.085938 1208.957031 C 295.117188 1212.851562 298.203125 1216.652344 301.582031 1220.257812 C 302.289062 1221.027344 302.992188 1221.792969 303.675781 1222.582031 C 306.789062 1226.1875 310.164062 1229.527344 313.558594 1232.878906 C 314.585938 1233.894531 315.613281 1234.914062 316.632812 1235.933594 C 320.546875 1239.8125 324.550781 1243.367188 328.902344 1246.765625 C 329.539062 1247.300781 330.171875 1247.839844 330.800781 1248.378906 C 346.292969 1261.710938 364.386719 1271.878906 382.660156 1280.988281 C 383.351562 1281.332031 383.351562 1281.332031 384.054688 1281.683594 C 395.78125 1287.496094 408.113281 1291.847656 420.496094 1296.050781 C 436.660156 1301.546875 452.351562 1307.605469 467.632812 1315.210938 C 468.125 1315.453125 468.621094 1315.699219 469.132812 1315.949219 C 478.816406 1320.742188 488.027344 1326.257812 496.53125 1332.890625 C 497.273438 1333.457031 497.273438 1333.457031 498.035156 1334.039062 C 501.039062 1336.363281 503.898438 1338.816406 506.71875 1341.355469 C 507.957031 1342.460938 509.210938 1343.542969 510.476562 1344.613281 C 514.429688 1348.023438 518.023438 1351.730469 521.386719 1355.699219 C 521.628906 1355.988281 521.867188 1356.273438 522.117188 1356.566406 C 525.71875 1360.832031 529.046875 1365.214844 532.191406 1369.820312 C 534.945312 1373.855469 537.773438 1377.714844 541.039062 1381.367188 C 541.292969 1381.652344 541.542969 1381.9375 541.804688 1382.226562 C 548.292969 1389.46875 555.398438 1395.886719 563.1875 1401.738281 C 564.121094 1402.441406 565.050781 1403.152344 565.976562 1403.867188 C 572.546875 1408.921875 579.347656 1413.664062 586.128906 1418.441406 C 587.117188 1419.136719 588.101562 1419.832031 589.089844 1420.527344 C 589.859375 1421.070312 590.632812 1421.617188 591.402344 1422.160156 C 597.273438 1426.292969 603.050781 1430.511719 608.671875 1434.980469 C 609.207031 1435.40625 609.742188 1435.832031 610.300781 1436.269531 C 611.882812 1437.542969 613.460938 1438.824219 615.027344 1440.113281 C 615.605469 1440.578125 616.179688 1441.035156 616.773438 1441.515625 C 621.304688 1445.199219 625.503906 1449.1875 629.660156 1453.269531 C 630.191406 1453.785156 630.722656 1454.304688 631.269531 1454.839844 C 636.132812 1459.660156 640.445312 1464.851562 644.507812 1470.34375 C 643.035156 1471.800781 641.867188 1471.996094 639.859375 1472.558594 C 639.320312 1472.707031 639.320312 1472.707031 638.769531 1472.859375 C 637.566406 1473.191406 636.359375 1473.511719 635.152344 1473.839844 C 634.523438 1474.003906 634.523438 1474.003906 633.882812 1474.175781 C 605.257812 1481.800781 575.230469 1486.347656 545.558594 1486.425781 C 544.625 1486.433594 543.695312 1486.433594 542.757812 1486.4375 C 539.789062 1486.449219 536.820312 1486.453125 533.851562 1486.457031 C 533.34375 1486.457031 532.835938 1486.457031 532.320312 1486.457031 C 517.507812 1486.457031 502.800781 1486.316406 488.0625 1484.742188 C 486.632812 1484.59375 485.199219 1484.453125 483.769531 1484.316406 C 466.15625 1482.59375 448.671875 1480.035156 431.210938 1477.1875 C 430.683594 1477.097656 430.15625 1477.011719 429.613281 1476.925781 C 393.554688 1471.003906 359.394531 1460.199219 326.832031 1443.675781 C 325.101562 1442.796875 323.367188 1441.933594 321.632812 1441.066406 C 312.5 1436.480469 303.582031 1431.636719 294.796875 1426.425781 C 294.160156 1426.050781 293.519531 1425.671875 292.859375 1425.28125 C 279.324219 1417.285156 266.070312 1408.894531 252.957031 1400.242188 C 246.367188 1395.894531 239.761719 1391.574219 233.148438 1387.261719 C 232.007812 1386.519531 230.875 1385.785156 229.738281 1385.042969 C 228.140625 1384 226.539062 1382.957031 224.941406 1381.917969 C 224.464844 1381.609375 223.992188 1381.292969 223.503906 1380.980469 C 220.917969 1379.300781 218.3125 1377.722656 215.605469 1376.234375 C 206.601562 1384.199219 201.898438 1394.78125 201.070312 1406.574219 C 200.816406 1412.222656 201.257812 1417.808594 201.734375 1423.433594 C 203.113281 1439.867188 203.871094 1459.285156 192.539062 1472.796875 C 184.195312 1481.457031 172.929688 1483.605469 161.292969 1483.964844 C 157.195312 1484.0625 153.117188 1483.945312 149.023438 1483.808594 C 138.078125 1483.449219 127.136719 1483.351562 116.183594 1483.308594 C 113.707031 1483.292969 111.226562 1483.285156 108.75 1483.269531 C 101.96875 1483.230469 95.183594 1483.199219 88.402344 1483.167969 C 82.148438 1483.140625 75.894531 1483.105469 69.640625 1483.074219 C 67.195312 1483.058594 64.746094 1483.050781 62.300781 1483.035156 C 44.902344 1482.964844 44.902344 1482.964844 36.847656 1482.636719 C 36.328125 1482.617188 35.8125 1482.597656 35.277344 1482.578125 C 25.21875 1482.097656 15.402344 1479.050781 8.273438 1471.730469 C 0.726562 1462.597656 0.304688 1451.996094 0.183594 1440.777344 C 0.164062 1439.523438 0.148438 1438.269531 0.128906 1437.011719 C -0.0898438 1421.925781 -0.0820312 1406.835938 -0.0742188 1391.746094 C -0.0703125 1387.261719 -0.0742188 1382.765625 -0.0742188 1378.273438 C -0.078125 1369.871094 -0.078125 1361.472656 -0.078125 1353.070312 C -0.0742188 1344.566406 -0.0742188 1336.058594 -0.0742188 1327.550781 C -0.0742188 1327.011719 -0.0742188 1326.472656 -0.0742188 1325.910156 C -0.0742188 1323.707031 -0.078125 1321.503906 -0.078125 1319.296875 C -0.0820312 1298.75 -0.0820312 1278.207031 -0.078125 1257.660156 C -0.078125 1237.605469 -0.078125 1217.550781 -0.078125 1197.496094 C -0.078125 1196.222656 -0.078125 1194.945312 -0.078125 1193.671875 C -0.078125 1188.542969 -0.078125 1183.414062 -0.078125 1178.285156 C -0.078125 1163.921875 -0.078125 1149.558594 -0.078125 1135.191406 C -0.078125 1134.535156 -0.078125 1133.878906 -0.078125 1133.207031 C -0.078125 1112.300781 -0.078125 1091.394531 -0.078125 1070.488281 C -0.078125 1069.808594 -0.078125 1069.128906 -0.078125 1068.433594 C -0.078125 1057.433594 -0.0742188 1046.433594 -0.0742188 1035.433594 C -0.0703125 994.175781 -0.0703125 952.925781 -0.0742188 911.667969 C -0.0742188 899.808594 -0.078125 887.953125 -0.078125 876.097656 C -0.078125 875.445312 -0.078125 874.796875 -0.078125 874.125 C -0.0820312 809.121094 -0.0820312 744.117188 0.171875 268.714844 C 0.171875 268.121094 0.175781 267.519531 0.175781 266.90625 C 0.179688 261.519531 0.1875 256.128906 0.195312 250.738281 C 0.210938 234.289062 0.226562 217.847656 0.242188 201.394531 C 0.261719 180.558594 0.289062 159.722656 0.316406 138.882812 C 0.320312 136.835938 0.320312 134.792969 0.324219 132.753906 C 0.324219 132.253906 0.328125 131.753906 0.328125 131.238281 C 0.335938 123.347656 0.347656 115.449219 0.351562 107.558594 C 0.359375 99.808594 0.367188 92.058594 0.382812 84.308594 C 0.390625 79.789062 0.398438 75.269531 0.398438 70.75 C 0.398438 67.386719 0.402344 64.019531 0.414062 60.65625 C 0.414062 59.316406 0.414062 57.976562 0.414062 56.632812 C 0.382812 18.070312 0.382812 18.070312 9.332031 8.976562 C 9.863281 8.484375 9.863281 8.484375 10.402344 7.988281 C 10.726562 7.675781 11.054688 7.363281 11.386719 7.050781 C 16.855469 2.421875 24.863281 1.214844 31.789062 0.566406 C 32.265625 0.519531 32.738281 0.472656 33.226562 0.425781 C 39.285156 -0.109375 45.324219 -0.0859375 51.402344 -0.0820312 Z M 51.402344 -0.0820312 "/>
<path style=" stroke:none;fill-rule:nonzero;fill:rgb(4.705882%,27.45098%,45.490196%);fill-opacity:1;" d="M 1329.109375 550.835938 C 1330.835938 550.847656 1332.566406 550.847656 1334.289062 550.851562 C 1342.898438 550.867188 1351.507812 550.902344 1360.117188 550.949219 C 1360.75 550.953125 1361.382812 550.957031 1362.039062 550.964844 C 1370.875 551.011719 1379.710938 551.070312 1388.550781 551.152344 C 1390.34375 551.160156 1392.136719 551.175781 1393.929688 551.191406 C 1396.757812 551.210938 1399.589844 551.238281 1402.421875 551.269531 C 1403.453125 551.277344 1404.484375 551.289062 1405.519531 551.292969 C 1419.265625 551.386719 1432.242188 552.539062 1442.882812 562.035156 C 1451.3125 570.777344 1453.285156 583.261719 1453.25 594.863281 C 1453.25 595.484375 1453.25 596.105469 1453.25 596.742188 C 1453.25 598.832031 1453.246094 600.917969 1453.242188 603.003906 C 1453.242188 604.535156 1453.242188 606.066406 1453.242188 607.589844 C 1453.242188 611.398438 1453.242188 615.207031 1453.234375 619.011719 C 1453.230469 622.21875 1453.226562 625.425781 1453.226562 628.628906 C 1453.21875 643.613281 1453.199219 658.59375 1453.179688 673.574219 C 1453.179688 674.175781 1453.179688 674.773438 1453.175781 675.394531 C 1453.125 710.351562 1453.058594 745.316406 1452.984375 780.277344 C 1452.980469 781.355469 1452.980469 781.355469 1452.976562 782.457031 C 1452.976562 783.183594 1452.976562 783.898438 1452.976562 784.644531 C 1452.972656 785.367188 1452.972656 786.089844 1452.96875 786.832031 C 1452.964844 788.292969 1452.960938 789.753906 1452.960938 791.214844 C 1452.933594 802.976562 1452.910156 814.742188 1452.886719 826.503906 C 1452.863281 838.863281 1452.835938 851.222656 1452.8125 863.574219 C 1452.796875 870.402344 1452.78125 877.230469 1452.769531 884.058594 C 1452.714844 913.257812 1452.585938 942.449219 1452.320312 971.648438 C 1452.3125 972.324219 1452.304688 973.003906 1452.300781 973.695312 C 1452.101562 995.574219 1451.859375 1017.449219 1451.511719 1039.332031 C 1451.457031 1042.902344 1451.410156 1046.480469 1451.367188 1050.050781 C 1450.679688 1105.285156 1436.390625 1154.917969 1405.203125 1209.125 C 1404.863281 1209.699219 1404.523438 1210.265625 1404.171875 1210.855469 C 1386.335938 1240.691406 1386.335938 1240.691406 1377.457031 1249.621094 C 1377.019531 1250.066406 1376.582031 1250.511719 1376.132812 1250.972656 C 1369.875 1256.953125 1363.070312 1259.492188 1354.417969 1259.492188 C 1343.871094 1259.3125 1334.367188 1253.859375 1326.011719 1247.910156 C 1325.609375 1247.625 1325.210938 1247.339844 1324.792969 1247.046875 C 1318.617188 1242.667969 1312.632812 1238.105469 1306.773438 1233.316406 C 1305.890625 1232.597656 1304.992188 1231.894531 1304.097656 1231.1875 C 1300.152344 1228.078125 1296.484375 1224.722656 1292.816406 1221.300781 C 1291.152344 1219.757812 1289.464844 1218.246094 1287.753906 1216.753906 C 1283.261719 1212.789062 1278.957031 1208.585938 1275.046875 1204.058594 C 1273.960938 1202.816406 1272.835938 1201.617188 1271.710938 1200.417969 C 1268.464844 1196.96875 1265.410156 1193.410156 1262.429688 1189.734375 C 1261.886719 1189.082031 1261.347656 1188.429688 1260.804688 1187.78125 C 1251.296875 1176.277344 1242.765625 1163.808594 1235.257812 1150.949219 C 1235.058594 1150.609375 1234.855469 1150.265625 1234.648438 1149.914062 C 1209.878906 1107.664062 1196.894531 1062.015625 1189.101562 1014.152344 C 1187.003906 1001.277344 1184.730469 988.511719 1181.503906 975.855469 C 1181.328125 975.144531 1181.148438 974.441406 1180.96875 973.710938 C 1171.722656 936.738281 1156.824219 900.171875 1134.101562 869.199219 C 1133.621094 868.542969 1133.621094 868.542969 1133.132812 867.871094 C 1129.179688 862.480469 1125.175781 857.160156 1120.808594 852.089844 C 1120.285156 851.476562 1119.757812 850.855469 1119.234375 850.238281 C 1111.6875 841.410156 1103.703125 832.574219 1094.757812 825.089844 C 1093.464844 823.996094 1092.222656 822.859375 1090.96875 821.722656 C 1087.699219 818.8125 1084.257812 816.15625 1080.773438 813.507812 C 1079.839844 812.792969 1078.914062 812.070312 1077.988281 811.355469 C 1054.613281 793.292969 1028.039062 779.234375 1000.578125 768.253906 C 999.964844 768.003906 999.355469 767.761719 998.726562 767.503906 C 991.421875 764.589844 984.039062 762.023438 976.539062 759.652344 C 975.886719 759.441406 975.238281 759.234375 974.566406 759.023438 C 971.304688 757.988281 968.039062 756.964844 964.761719 755.960938 C 952.964844 752.292969 941.777344 747.589844 931.789062 740.300781 C 931.476562 740.078125 931.160156 739.847656 930.832031 739.613281 C 922.671875 733.691406 915.261719 727.027344 908.140625 719.933594 C 906.960938 718.761719 905.78125 717.59375 904.597656 716.429688 C 903.828125 715.667969 903.0625 714.910156 902.296875 714.144531 C 901.777344 713.636719 901.777344 713.636719 901.25 713.113281 C 899.117188 710.980469 897.089844 708.789062 895.113281 706.519531 C 893.914062 705.167969 892.632812 703.914062 891.328125 702.660156 C 889.683594 701.058594 888.089844 699.449219 886.597656 697.707031 C 881.910156 692.3125 876.621094 687.253906 871.097656 682.699219 C 870.570312 682.242188 870.039062 681.78125 869.496094 681.308594 C 865.632812 677.980469 861.617188 674.988281 857.402344 672.097656 C 847.125 665.042969 837.445312 657.058594 828.675781 648.238281 C 827.726562 647.320312 826.738281 646.472656 825.722656 645.628906 C 823.289062 643.558594 821.023438 641.339844 818.75 639.101562 C 818.386719 638.746094 818.027344 638.394531 817.65625 638.035156 C 815.902344 636.300781 814.210938 634.542969 812.601562 632.679688 C 810.335938 630.117188 807.933594 627.707031 805.492188 625.308594 C 804.804688 624.628906 804.804688 624.628906 804.105469 623.933594 C 803.144531 622.988281 802.179688 622.035156 801.214844 621.089844 C 799.75 619.644531 798.289062 618.199219 796.828125 616.753906 C 795.886719 615.824219 794.945312 614.902344 794.007812 613.972656 C 793.574219 613.542969 793.144531 613.121094 792.695312 612.675781 C 790.328125 610.347656 787.90625 608.128906 785.339844 606.003906 C 784.394531 605.132812 784.394531 605.132812 783.238281 603.421875 C 787.675781 601.621094 792.285156 600.496094 796.929688 599.359375 C 797.375 599.246094 797.824219 599.136719 798.285156 599.023438 C 823.90625 592.753906 849.984375 588.402344 876.300781 586.3125 C 877 586.253906 877.699219 586.195312 878.421875 586.132812 C 901.445312 584.269531 924.960938 584.3125 947.976562 586.3125 C 948.386719 586.34375 948.796875 586.378906 949.222656 586.417969 C 994.402344 590.246094 1040.152344 599.878906 1153.289062 654.574219 C 1170.042969 666.625 1188.996094 674.8125 1210.164062 672.253906 C 1212.832031 671.785156 1215.359375 671.035156 1217.917969 670.152344 C 1218.835938 669.839844 1218.835938 669.839844 1219.773438 669.523438 C 1226.652344 666.957031 1232.359375 662.652344 1237.570312 657.605469 C 1237.957031 657.238281 1238.339844 656.878906 1238.734375 656.5 C 1253.28125 641.59375 1256.601562 620.257812 1259.5 600.703125 C 1264.648438 565.988281 1264.648438 565.988281 1272.703125 558.722656 C 1287.847656 547.800781 1311.296875 550.773438 1329.109375 550.835938 Z M 1329.109375 550.835938 "/>
<path style=" stroke:none;fill-rule:nonzero;fill:rgb(4.705882%,27.45098%,45.490196%);fill-opacity:1;" d="M 552.457031 792.632812 C 552.988281 792.621094 553.519531 792.609375 554.066406 792.597656 C 563.695312 792.542969 572.785156 795.113281 581.898438 797.910156 C 582.441406 798.074219 582.976562 798.238281 583.535156 798.402344 C 612.171875 807.089844 640.4375 817.589844 662.613281 838.121094 C 663.921875 839.324219 665.253906 840.472656 666.617188 841.613281 C 669.128906 843.746094 671.253906 846.191406 673.410156 848.667969 C 671.382812 854.152344 669.027344 859.425781 666.535156 864.714844 C 665.429688 867.050781 664.335938 869.390625 663.242188 871.730469 C 663.023438 872.199219 662.804688 872.667969 662.578125 873.144531 C 659.714844 879.265625 656.929688 885.421875 654.148438 891.582031 C 653.296875 893.464844 652.441406 895.351562 651.582031 897.230469 C 643.050781 915.941406 634.523438 934.773438 627.746094 954.183594 C 627.523438 954.808594 627.304688 955.433594 627.082031 956.078125 C 619.96875 976.589844 614.835938 998.097656 613.292969 1019.769531 C 613.246094 1020.421875 613.195312 1021.074219 613.148438 1021.742188 C 609.839844 1069.214844 621.273438 1114.894531 642.773438 1157.222656 C 643.164062 1157.996094 643.164062 1157.996094 643.558594 1158.777344 C 649.222656 1169.914062 655.8125 1180.636719 663.007812 1190.875 C 663.316406 1191.320312 663.625 1191.761719 663.945312 1192.214844 C 668.101562 1198.167969 672.339844 1204.019531 676.878906 1209.699219 C 677.386719 1210.339844 677.894531 1210.992188 678.402344 1211.644531 C 683.367188 1217.960938 688.609375 1224.027344 694.0625 1229.9375 C 694.890625 1230.839844 695.714844 1231.746094 696.53125 1232.65625 C 699.628906 1236.097656 702.84375 1239.398438 706.148438 1242.644531 C 706.976562 1243.457031 707.800781 1244.269531 708.621094 1245.089844 C 711.628906 1248.050781 714.6875 1250.894531 717.917969 1253.613281 C 718.617188 1254.214844 719.308594 1254.816406 720.003906 1255.425781 C 724.570312 1259.378906 729.210938 1263.167969 734.101562 1266.730469 C 734.5 1267.015625 734.898438 1267.308594 735.304688 1267.601562 C 775.015625 1296.410156 821.011719 1314.761719 935.679688 1315.984375 C 941.101562 1315.144531 946.507812 1314.183594 951.898438 1313.191406 C 960.179688 1311.683594 968.582031 1310.394531 977.023438 1310.503906 C 977.5 1310.507812 977.976562 1310.511719 978.46875 1310.511719 C 995.367188 1310.792969 1010.109375 1316.730469 1021.953125 1328.652344 C 1030.230469 1337.238281 1036.117188 1347.511719 1042.164062 1357.679688 C 1045.898438 1363.941406 1049.820312 1370.089844 1053.757812 1376.234375 C 1054.113281 1376.792969 1054.46875 1377.351562 1054.835938 1377.925781 C 1060.148438 1386.21875 1065.613281 1394.410156 1071.164062 1402.546875 C 1074.023438 1406.75 1076.8125 1410.992188 1079.519531 1415.300781 C 1081.246094 1418.042969 1083.023438 1420.753906 1084.863281 1423.433594 C 1087.445312 1427.226562 1089.996094 1431.042969 1092.523438 1434.871094 C 1092.835938 1435.355469 1093.15625 1435.832031 1093.480469 1436.328125 C 1094.0625 1437.210938 1094.640625 1438.097656 1095.214844 1438.980469 C 1095.824219 1439.914062 1096.445312 1440.839844 1097.070312 1441.761719 C 1097.273438 1442.160156 1097.476562 1442.558594 1097.6875 1442.964844 C 1097.109375 1444.675781 1097.109375 1444.675781 1095.789062 1445.488281 C 1095.203125 1445.765625 1094.617188 1446.042969 1094.015625 1446.332031 C 1093.355469 1446.648438 1092.695312 1446.964844 1092.011719 1447.289062 C 1091.277344 1447.632812 1090.546875 1447.972656 1089.8125 1448.316406 C 1089.4375 1448.488281 1089.066406 1448.664062 1088.679688 1448.839844 C 1062.492188 1461.121094 1035.101562 1470.4375 1006.9375 1477.1875 C 1006.285156 1477.339844 1005.632812 1477.5 1004.964844 1477.660156 C 990.199219 1481.167969 975.195312 1483.59375 960.117188 1485.3125 C 958.992188 1485.441406 958.992188 1485.441406 957.847656 1485.574219 C 955.332031 1485.847656 952.8125 1486.085938 950.289062 1486.3125 C 949.472656 1486.386719 949.472656 1486.386719 948.636719 1486.460938 C 936.429688 1487.542969 924.273438 1487.65625 912.03125 1487.628906 C 911.023438 1487.628906 910.011719 1487.628906 909.007812 1487.628906 C 894.875 1487.605469 880.8125 1487.457031 866.757812 1485.898438 C 865.199219 1485.730469 863.644531 1485.5625 862.089844 1485.398438 C 811.621094 1479.976562 761.371094 1468.488281 642.773438 1410.457031 C 642.320312 1410.144531 641.867188 1409.839844 641.398438 1409.519531 C 635.605469 1405.566406 629.855469 1401.582031 624.277344 1397.339844 C 623.890625 1397.046875 623.507812 1396.757812 623.109375 1396.457031 C 617.820312 1392.464844 612.640625 1388.390625 607.621094 1384.074219 C 605.910156 1382.605469 604.152344 1381.199219 602.382812 1379.800781 C 600.125 1377.988281 598.039062 1376.105469 596.039062 1374.019531 C 594.945312 1372.960938 593.832031 1371.980469 592.671875 1370.996094 C 590.339844 1368.988281 588.128906 1366.886719 585.945312 1364.722656 C 585.5625 1364.347656 585.179688 1363.972656 584.789062 1363.585938 C 583.988281 1362.796875 583.191406 1362.003906 582.390625 1361.21875 C 581.179688 1360.019531 579.96875 1358.828125 578.753906 1357.632812 C 577.972656 1356.863281 577.1875 1356.089844 576.40625 1355.316406 C 576.050781 1354.964844 575.695312 1354.613281 575.324219 1354.25 C 573.160156 1352.101562 571.101562 1349.882812 569.089844 1347.585938 C 567.886719 1346.210938 566.636719 1344.882812 565.390625 1343.550781 C 562.546875 1340.464844 559.875 1337.273438 557.226562 1334.03125 C 556.664062 1333.355469 556.101562 1332.683594 555.535156 1332.003906 C 536.933594 1309.738281 521 1285.378906 507.292969 1259.910156 C 506.679688 1258.765625 506.058594 1257.628906 505.4375 1256.488281 C 482.128906 1213.695312 465.679688 1166.019531 448.554688 1060.265625 C 448.511719 1059.675781 448.46875 1059.089844 448.425781 1058.480469 C 445.273438 1011.957031 451.277344 964.550781 485.550781 859.503906 C 485.789062 858.964844 486.027344 858.425781 486.273438 857.871094 C 489.492188 850.679688 492.960938 843.605469 496.5 836.554688 C 496.945312 835.664062 497.394531 834.769531 497.835938 833.878906 C 501.824219 825.875 506.25 818.410156 512.136719 811.597656 C 512.527344 811.128906 512.917969 810.660156 513.320312 810.183594 C 521.085938 801.191406 531.132812 795.75 542.773438 793.34375 C 543.300781 793.238281 543.828125 793.128906 544.367188 793.011719 C 547.066406 792.671875 549.738281 792.648438 552.457031 792.632812 Z M 552.457031 792.632812 "/>
<path style=" stroke:none;fill-rule:nonzero;fill:rgb(4.705882%,27.45098%,45.490196%);fill-opacity:1;" d="M 1392.207031 11.269531 C 1394.421875 11.265625 1396.632812 11.257812 1398.851562 11.253906 C 1402.375 11.25 1405.902344 11.246094 1409.429688 11.253906 C 1410.742188 11.253906 1412.054688 11.253906 1413.363281 11.253906 C 1439.019531 11.207031 1439.019531 11.207031 1445.382812 17.21875 C 1450.070312 22.832031 1451.0625 30.535156 1451.542969 37.554688 C 1451.585938 38.195312 1451.632812 38.832031 1451.679688 39.488281 C 1452.171875 46.910156 1452.199219 54.332031 1452.195312 61.773438 C 1452.199219 63.859375 1452.207031 65.945312 1452.210938 68.03125 C 1452.226562 71.632812 1452.230469 75.238281 1452.234375 78.839844 C 1452.242188 84.085938 1452.253906 89.328125 1452.269531 94.574219 C 1452.289062 103.132812 1452.308594 111.699219 1452.324219 120.253906 C 1452.339844 128.480469 1452.355469 136.707031 1452.375 144.929688 C 1452.375 145.433594 1452.375 145.941406 1452.378906 146.457031 C 1452.390625 152.003906 1452.402344 157.550781 1452.414062 163.101562 C 1452.417969 163.59375 1452.417969 164.089844 1452.417969 164.597656 C 1452.425781 166.574219 1452.429688 168.546875 1452.433594 170.527344 C 1452.445312 175.761719 1452.460938 181.003906 1452.46875 186.238281 C 1452.5 207.277344 1452.648438 228.296875 1453.085938 249.324219 C 1453.195312 254.914062 1453.253906 260.507812 1453.289062 266.101562 C 1453.289062 266.515625 1453.292969 266.933594 1453.296875 267.367188 C 1453.367188 277.886719 1452.832031 289.125 1445.085938 297.144531 C 1444.789062 297.464844 1444.496094 297.777344 1444.195312 298.097656 C 1432.964844 308.765625 1412.769531 307.503906 1398.449219 307.402344 C 1389.226562 307.34375 1380.023438 307.589844 1370.808594 307.914062 C 1370.085938 307.941406 1369.359375 307.964844 1368.609375 307.988281 C 1364.839844 308.121094 1361.070312 308.253906 1357.300781 308.386719 C 1350.4375 308.632812 1343.578125 308.863281 1336.714844 309.082031 C 1334.039062 309.167969 1331.367188 309.257812 1328.695312 309.347656 C 1271.253906 311.230469 1271.253906 311.230469 1261.273438 302.277344 C 1259.644531 300.042969 1259.289062 298.378906 1259.164062 295.644531 C 1259.148438 295.273438 1259.128906 294.902344 1259.109375 294.519531 C 1259.050781 293.304688 1259.003906 292.089844 1258.960938 290.875 C 1258.925781 290.046875 1258.890625 289.222656 1258.855469 288.398438 C 1258.742188 285.640625 1258.652344 282.886719 1258.566406 280.128906 C 1258.527344 279.074219 1258.492188 278.019531 1258.460938 276.96875 C 1256.742188 224.929688 1255.800781 172.90625 1256.488281 61.945312 C 1256.527344 59.253906 1256.566406 56.558594 1256.601562 53.863281 C 1256.648438 50.277344 1256.707031 46.691406 1256.769531 43.105469 C 1256.789062 41.800781 1256.8125 40.496094 1256.828125 39.191406 C 1256.851562 37.40625 1256.882812 35.621094 1256.921875 33.839844 C 1256.929688 33.332031 1256.929688 32.820312 1256.9375 32.300781 C 1257.082031 26.554688 1258.28125 21.203125 1262.5 17.039062 C 1272.523438 10.589844 1286.558594 12.429688 1298.039062 12.527344 C 1302.710938 12.566406 1307.382812 12.578125 1312.058594 12.582031 C 1312.535156 12.582031 1313.007812 12.582031 1313.496094 12.585938 C 1321.6875 12.589844 1329.851562 12.378906 1338.03125 12.058594 C 1356.085938 11.351562 1374.136719 11.277344 1392.207031 11.269531 Z M 1392.207031 11.269531 "/>
</g>
</svg>
