<?xml version="1.0" standalone="no"?>
<!DOCTYPE svg PUBLIC "-//W3C//DTD SVG 20010904//EN"
 "http://www.w3.org/TR/2001/REC-SVG-20010904/DTD/svg10.dtd">
<svg version="1.0" xmlns="http://www.w3.org/2000/svg"
 width="512.000000pt" height="512.000000pt" viewBox="0 0 512.000000 512.000000"
 preserveAspectRatio="xMidYMid meet">

<g transform="translate(0.000000,512.000000) scale(0.100000,-0.100000)"
fill="#000000" stroke="none">
<path d="M345 5106 c-83 -20 -146 -56 -211 -120 -65 -66 -105 -137 -123 -224
-15 -74 -16 -2159 0 -2234 17 -80 74 -182 132 -234 104 -93 201 -124 389 -124
l128 0 0 -235 c0 -260 4 -281 59 -328 46 -39 87 -43 194 -18 298 69 574 273
707 522 l31 59 447 0 c365 0 458 3 505 15 169 44 288 163 332 332 22 86 22
2170 0 2256 -45 172 -176 301 -343 336 -79 16 -2178 14 -2247 -3z m984 -675
l91 -99 -68 -55 c-136 -112 -234 -264 -278 -433 -33 -124 -37 -318 -10 -428
46 -192 161 -324 329 -378 83 -28 267 -31 347 -6 146 45 211 188 137 300 -54
80 -200 103 -342 53 -38 -14 -71 -25 -72 -25 -1 0 -27 48 -56 106 l-55 106 47
20 c25 11 104 42 175 69 212 81 283 129 306 206 17 56 6 107 -34 151 -32 34
-38 36 -103 40 -84 5 -134 -13 -163 -60 -17 -27 -20 -45 -17 -103 2 -38 7 -77
11 -86 6 -14 -7 -20 -84 -38 -50 -12 -109 -24 -130 -27 -37 -6 -38 -6 -56 42
-14 36 -19 75 -19 144 0 88 3 101 33 162 52 106 148 175 281 204 122 26 269
11 370 -38 70 -34 144 -113 170 -183 33 -85 26 -214 -14 -299 -27 -58 -92
-133 -148 -172 l-29 -20 60 -37 c134 -82 196 -228 172 -399 -36 -254 -238
-388 -585 -390 -259 -2 -437 59 -587 200 -158 149 -238 362 -238 632 0 257 74
491 221 700 57 81 224 254 238 246 5 -3 50 -50 100 -105z"/>
<path d="M3705 5106 c-16 -8 -110 -94 -207 -192 -249 -252 -249 -244 -4 -492
168 -171 210 -202 273 -202 74 0 143 68 143 142 0 49 -12 78 -50 121 l-30 35
42 -5 c431 -51 784 -348 902 -757 14 -48 32 -149 40 -223 14 -134 15 -136 48
-170 78 -77 196 -55 240 45 20 44 20 53 9 167 -14 146 -39 254 -86 377 -120
311 -360 575 -665 728 -93 47 -282 106 -380 120 -47 6 -100 14 -119 16 l-34 5
31 32 c41 44 52 69 52 120 0 105 -109 176 -205 133z"/>
<path d="M4185 3526 c-193 -51 -363 -144 -498 -275 -61 -58 -160 -188 -193
-252 l-24 -49 -109 0 -109 0 -5 -227 c-5 -261 -11 -295 -84 -443 -39 -80 -61
-109 -137 -186 -77 -76 -106 -98 -186 -137 -148 -73 -182 -79 -442 -84 l-228
-5 0 -728 c0 -502 4 -746 11 -782 36 -168 179 -311 347 -347 74 -16 2159 -16
2234 0 171 36 310 175 347 347 16 75 16 2159 0 2234 -27 126 -115 242 -226
300 -89 47 -148 58 -298 58 l-124 0 -3 249 c-3 234 -4 251 -24 277 -55 74
-113 86 -249 50z m-475 -1318 l45 -23 312 -620 c172 -341 317 -637 323 -657
23 -82 -34 -168 -120 -183 -33 -6 -51 -2 -88 17 -44 22 -51 32 -112 151 l-65
127 -360 0 -360 0 -65 -128 c-61 -120 -68 -128 -112 -150 -84 -42 -169 -8
-203 82 -14 35 -15 50 -5 82 6 21 151 318 323 659 l312 620 45 23 c24 12 54
22 65 22 11 0 41 -10 65 -22z"/>
<path d="M3542 1535 c-56 -113 -102 -207 -102 -210 0 -3 92 -5 205 -5 113 0
205 3 204 8 0 4 -46 98 -102 210 l-102 202 -103 -205z"/>
<path d="M84 1790 c-80 -41 -96 -105 -73 -295 63 -519 427 -961 924 -1123 96
-32 253 -62 319 -62 l40 0 -25 -28 c-42 -46 -51 -60 -59 -97 -16 -73 22 -143
94 -170 36 -14 50 -15 87 -5 37 10 70 37 212 178 93 92 175 180 184 196 18 34
19 105 3 138 -16 30 -293 311 -344 349 -31 23 -49 29 -90 29 -91 0 -148 -56
-148 -145 0 -48 13 -77 50 -117 l26 -28 -26 0 c-53 0 -196 33 -273 62 -155 60
-251 123 -376 248 -189 189 -284 399 -307 683 -7 82 -14 115 -29 135 -50 67
-120 87 -189 52z"/>
</g>
</svg>
